<?xml version="1.0" encoding="UTF-8"?>
<svg width="14px" height="14px" viewBox="0 0 14 14" version="1.1" xmlns="http://www.w3.org/2000/svg" xmlns:xlink="http://www.w3.org/1999/xlink">
    <!-- Generator: Sketch 55.2 (78181) - https://sketchapp.com -->
    <title>弹出框的关闭图标</title>
    <desc>Created with Sketch.</desc>
    <g id="B-数据开发--一期(改)" stroke="none" stroke-width="1" fill="none" fill-rule="evenodd">
        <g id="b1任务新增" transform="translate(-976.000000, -316.000000)" fill="#39475B" fill-rule="nonzero">
            <g id="Form-Base" transform="translate(560.000000, 293.000000)">
                <g id="Icon" transform="translate(416.000000, 23.000000)">
                    <path d="M7.48971548,6.7826087 L12.9187708,12.211664 C13.1140329,12.4069261 13.1140329,12.7235086 12.9187708,12.9187708 C12.7235086,13.1140329 12.4069261,13.1140329 12.211664,12.9187708 L6.7826087,7.48971548 L1.35355339,12.9187708 C1.15829124,13.1140329 0.841708755,13.1140329 0.646446609,12.9187708 C0.451184464,12.7235086 0.451184464,12.4069261 0.646446609,12.211664 L6.07550191,6.7826087 L0.646446609,1.35355339 C0.451184464,1.15829124 0.451184464,0.841708755 0.646446609,0.646446609 C0.841708755,0.451184464 1.15829124,0.451184464 1.35355339,0.646446609 L6.7826087,6.07550191 L12.211664,0.646446609 C12.4069261,0.451184464 12.7235086,0.451184464 12.9187708,0.646446609 C13.1140329,0.841708755 13.1140329,1.15829124 12.9187708,1.35355339 L7.48971548,6.7826087 Z" id="弹出框的关闭图标"></path>
                </g>
            </g>
        </g>
    </g>
</svg>