<?xml version="1.0" encoding="UTF-8"?>
<svg width="68px" height="79px" viewBox="0 0 68 79" version="1.1" xmlns="http://www.w3.org/2000/svg" xmlns:xlink="http://www.w3.org/1999/xlink">
    <!-- Generator: Sketch 57.1 (83088) - https://sketch.com -->
    <title>暂无数据</title>
    <desc>Created with Sketch.</desc>
    <g id="缺省状态" stroke="none" stroke-width="1" fill="none" fill-rule="evenodd">
        <g id="列表为空" transform="translate(-757.000000, -442.000000)" fill-rule="nonzero">
            <g id="暂无数据" transform="translate(757.000000, 442.000000)">
                <polygon id="路径" fill="#A3B2C4" points="68 78.1492537 0 78.1492537 10.6986992 45.6716418 56.7702045 45.6813978"></polygon>
                <polygon id="路径" fill="#C5CFDA" points="12.1791045 30.4477612 55.8208955 30.4477612 55.8208955 45.6716418 12.1791045 45.6716418"></polygon>
                <path d="M68,78.1492537 L55.8208955,45.4036747 L55.8208955,30.4477612 L68,54.357544 L68,78.1492537 Z M0.294075249,78.1492537 L12.1791045,45.4036747 L12.1791045,30.4477612 L0,54.357544 L0.294075249,78.1492537 Z" id="形状" fill="#B3C3D2"></path>
                <path d="M48.2773533,54.8059701 C47.4833502,61.8147476 41.445005,67.2692369 34.1127288,67.2692369 C26.7804526,67.2692369 20.7421075,61.8147476 19.9481044,54.8059701 L0,54.8059701 L0.225457691,78.1492537 L68,78.1492537 L68,54.8059701 L48.2773533,54.8059701 L48.2773533,54.8059701 Z" id="路径" fill="#D1DBE5"></path>
                <polygon id="路径" fill="#D1DBE6" points="45.0626866 10.8184045 51.8690299 13.8757797 62.9586754 5.0564282 54.5094216 14.2285538 62.9586754 17.0507463 67.5940299 0 45.0626866 10.8184045"></polygon>
                <polygon id="路径" fill="#AFC0D2" points="54.797685 14.4119403 54.1970149 20.2985075 57.8761194 15.9504749 54.797685 14.4119403"></polygon>
                <path d="M27.3322322,43.4428956 C25.641121,44.4399663 24.358209,44.909176 24.358209,44.909176 L24.6497799,45.6716418 C24.708094,45.6716418 25.991006,45.1437809 27.7404315,44.1467102 L27.3322322,43.4428956 L27.3322322,43.4428956 Z M31.0643398,40.9208933 C30.2479413,41.5660567 29.4315428,42.1525689 28.6151442,42.6804298 C28.4402017,42.7977322 28.3818875,43.0323371 28.4985159,43.2669419 C28.6151442,43.4428956 28.8484009,43.5015468 29.0816577,43.3842444 C29.9563704,42.7977322 30.8310831,42.2112201 31.6474817,41.5660567 C31.76411,41.4487543 31.8224242,41.3314518 31.76411,41.2141494 C31.76411,41.096847 31.6474817,40.9795445 31.5308533,40.9208933 C31.3559108,40.8035909 31.1809682,40.8035909 31.0643398,40.9208933 Z M35.4962177,36.756657 C35.3212751,36.6393546 35.0880184,36.6980058 34.9130758,36.8739594 C34.2716198,37.8123789 33.4552213,38.7507983 32.5805086,39.5719154 C32.405566,39.747869 32.405566,39.9824739 32.5805086,40.1584275 C32.7554511,40.3343812 32.9887078,40.3343812 33.1636504,40.1584275 C34.0966773,39.2786593 34.9130758,38.2815886 35.612846,37.3431692 C35.6711602,37.2258667 35.6711602,37.1672155 35.6711602,37.0499131 C35.612846,36.8739594 35.5545318,36.8153082 35.4962177,36.756657 Z M37.3039573,27.9589747 C37.3039573,28.0762771 37.4205857,28.2522307 37.537214,28.310882 C37.6538424,28.3695332 37.8287849,28.3695332 37.9454133,28.2522307 C38.0620416,28.1349283 38.1203558,28.0176259 38.1203558,27.9003234 C37.8870991,26.0821358 37.3039573,24.7331578 36.254302,23.7947383 C36.0793595,23.6774359 35.8461027,23.6774359 35.6711602,23.8533896 C35.5545318,24.0293432 35.5545318,24.2639481 35.6711602,24.4399017 C36.6041871,25.2023675 37.1290147,26.3753918 37.3039573,27.9589747 L37.3039573,27.9589747 Z M30.7727689,23.970692 C30.8310831,23.970692 30.8893973,23.970692 30.9477115,23.9120408 C31.9973668,23.4428311 33.2219646,23.3255286 34.2133057,23.6187847 C34.4465624,23.6774359 34.6215049,23.5601335 34.7381333,23.3255286 C34.7964475,23.0909238 34.6798191,22.9149701 34.4465624,22.7976677 C33.2219646,22.4457604 31.8224242,22.5630628 30.5978264,23.149575 C30.4228838,23.2082262 30.3062555,23.4428311 30.3645697,23.6187847 C30.4228838,23.7947383 30.5978264,23.970692 30.7727689,23.970692 Z M28.55683,28.0762771 C28.4985159,27.7243698 28.4402017,27.4311137 28.4985159,27.0792064 L28.8484009,25.8475309 C29.0233435,25.5542748 29.2566002,25.2610187 29.4898569,24.9677627 C29.6647995,24.791809 29.6647995,24.5572042 29.4898569,24.3812505 C29.3149144,24.2052969 29.0816577,24.2052969 28.9067151,24.3812505 C27.8570599,25.4956236 27.4488606,26.8446016 27.7404315,28.2522307 C27.7987457,28.4868356 28.0320024,28.604138 28.2069449,28.5454868 C28.4985159,28.4868356 28.6151442,28.2522307 28.55683,28.0762771 L28.55683,28.0762771 Z M28.6734584,29.4839063 C28.4985159,29.6012087 28.4402017,29.8358136 28.55683,30.0704184 C28.9650293,30.7155818 29.5481711,31.302094 30.2479413,31.8886061 C30.481198,32.123211 30.7727689,32.2991646 31.0060257,32.4751183 C31.1809682,32.5924207 31.4142249,32.5337695 31.5891675,32.3578158 C31.7057958,32.1818622 31.6474817,31.9472573 31.4725391,31.7713037 C31.2392824,31.59535 31.0060257,31.4193964 30.7727689,31.1847915 C30.1313129,30.6569306 29.6064853,30.0704184 29.2566002,29.5425575 C29.1399719,29.3666038 28.8484009,29.3666038 28.6734584,29.4839063 Z M35.0297042,34.1173523 C35.2629609,34.1173523 35.4379035,33.9413987 35.4379035,33.765445 C35.4379035,33.5308401 35.3212751,33.3548865 35.0880184,33.3548865 C34.2716198,33.2375841 33.5135355,33.0029792 32.7554511,32.5924207 C32.5805086,32.4751183 32.2889377,32.5924207 32.2306235,32.7683743 C32.1139951,32.944328 32.2306235,33.2375841 32.405566,33.2962353 C33.2219646,33.7067938 34.0966773,34.0000499 35.0297042,34.1173523 C34.97139,34.1173523 35.0297042,34.1173523 35.0297042,34.1173523 L35.0297042,34.1173523 Z M38.0620416,33.1202816 C37.8870991,33.1789329 37.7121566,33.1789329 37.5955282,33.2375841 C37.8870991,32.2991646 38.0620416,31.302094 38.17867,30.3050233 C38.17867,30.1877209 38.17867,30.0704184 38.0620416,30.0117672 C38.0037275,29.953116 37.8870991,29.8944648 37.7704707,29.8944648 C37.537214,29.8944648 37.3622715,30.0704184 37.3622715,30.2463721 C37.3039573,31.302094 37.0707006,32.3578158 36.7208155,33.3548865 L36.254302,33.3548865 C36.0210453,33.3548865 35.8461027,33.5308401 35.8461027,33.765445 C35.8461027,34.0000499 36.0210453,34.1173523 36.254302,34.1173523 L36.3709304,34.1173523 C36.1959878,34.5279108 36.0210453,34.8798181 35.8461027,35.2317254 C35.7294744,35.407679 35.8461027,35.6422839 36.0210453,35.7595863 C36.1959878,35.8768888 36.4292446,35.8182376 36.5458729,35.5836327 C36.8374438,35.0557718 37.0707006,34.5279108 37.2456431,34.0000499 C37.5955282,33.9413987 37.8870991,33.8827474 38.2369842,33.765445 C38.4702409,33.7067938 38.5868693,33.5308401 38.5285551,33.2962353 C38.5285551,33.1789329 38.2952984,33.0616304 38.0620416,33.1202816 Z M42.7854904,30.3050233 C41.8524635,31.1261403 40.9194366,31.8299549 39.9864096,32.2991646 C39.8114671,32.4164671 39.6948387,32.6510719 39.8114671,32.8270256 C39.9280955,33.0029792 40.1613522,33.1202816 40.3362947,33.0029792 C41.3276358,32.4751183 42.2606627,31.7713037 43.2520038,30.8915354 C43.3686322,30.774233 43.4269464,30.6569306 43.3686322,30.4809769 C43.3686322,30.3636745 43.2520038,30.2463721 43.0770613,30.1877209 C43.0187471,30.1877209 42.9021187,30.1877209 42.7854904,30.3050233 L42.7854904,30.3050233 Z M46.9257973,26.2580894 C46.8674831,26.1994382 46.7508547,26.140787 46.6342264,26.1994382 C46.517598,26.1994382 46.4592838,26.2580894 46.3426554,26.3753918 C45.6428853,27.3138113 44.9431151,28.1349283 44.3016591,28.8387429 C44.1850307,29.0146965 44.1850307,29.2493014 44.3016591,29.4252551 C44.4766016,29.6012087 44.7098584,29.5425575 44.8848009,29.4252551 C45.5845711,28.6627892 46.2843413,27.783021 46.9841114,26.8446016 C47.0424256,26.7859503 47.1007398,26.6686479 47.0424256,26.5513455 C47.0424256,26.4340431 46.9841114,26.3167406 46.9257973,26.2580894 L46.9257973,26.2580894 Z M50.2497056,21.0381312 C50.1330773,20.97948 50.0747631,20.97948 49.9581347,20.97948 C49.8415063,20.97948 49.7831922,21.0967824 49.724878,21.1554336 C49.083422,22.2698067 48.441966,23.3841798 47.6838816,24.4399017 C47.6255674,24.5572042 47.5672533,24.7331578 47.6255674,24.8504602 C47.6838816,24.9677627 47.80051,25.0850651 47.9754525,25.0850651 C48.1503951,25.0850651 48.2670234,25.0264139 48.3253376,24.9091114 C49.0251078,23.7947383 49.724878,22.6803652 50.366334,21.5659922 C50.4246482,21.4486897 50.4246482,21.3900385 50.4246482,21.2727361 C50.366334,21.1554336 50.3080198,21.0967824 50.2497056,21.0381312 L50.2497056,21.0381312 Z M52.7572154,15.8768242 C52.6405871,15.818173 52.5239587,15.818173 52.4656445,15.8768242 C52.3490162,15.9354754 52.290702,15.9941267 52.2323878,16.1114291 C52.2323878,16.1114291 51.7075602,17.3431046 50.7745333,19.1612923 C50.6579049,19.337246 50.7745333,19.630502 50.9494758,19.6891533 C51.1244183,19.8064557 51.4159893,19.6891533 51.4743034,19.5131996 C52.4073303,17.6950119 52.932158,16.4633364 52.932158,16.4046852 C53.0487863,16.2287315 52.932158,15.9354754 52.7572154,15.8768242 Z" id="形状" fill="#9BA8B8"></path>
            </g>
        </g>
    </g>
</svg>