<?xml version="1.0" encoding="UTF-8"?>
<svg  viewBox="0 0 20 20" version="1.1" xmlns="http://www.w3.org/2000/svg" xmlns:xlink="http://www.w3.org/1999/xlink">
    <!-- Generator: Sketch 57.1 (83088) - https://sketch.com -->
    <title>add</title>
    <desc>Created with Sketch.</desc>
    <g id="组件库" stroke="none" stroke-width="1"  fill-rule="evenodd">
        <g id="图标Iconography" transform="translate(-391.000000, -578.000000)">
            <g id="编组-22" transform="translate(391.000000, 578.000000)">
                <path d="M9.5,5.5 C9.5,5.224 9.7,5 10,5 C10.3,5 10.5,5.224 10.5,5.5 L10.5,9.5 L14.5,9.5 C14.8,9.5 15,9.724 15,10 C15,10.276 14.8,10.5 14.5,10.5 L10.5,10.5 L10.5,14.5 C10.5,14.776 10.3,15 10,15 C9.7,15 9.5,14.776 9.5,14.5 L9.5,10.5 L5.5,10.5 C5.2,10.5 5,10.276 5,10 C5,9.724 5.2,9.5 5.5,9.5 L9.5,9.5 L9.5,5.5 Z" id="add"></path>
            </g>
        </g>
    </g>
</svg>
