<?xml version="1.0" encoding="UTF-8"?>
<svg  viewBox="0 0 16 16" version="1.1" xmlns="http://www.w3.org/2000/svg" xmlns:xlink="http://www.w3.org/1999/xlink">
    <!-- Generator: Sketch 57.1 (83088) - https://sketch.com -->
    <title>Info Icon</title>
    <desc>Created with Sketch.</desc>
    <g id="组件库" stroke="none" stroke-width="1"  fill-rule="evenodd" opacity="0.699999988">
        <g id="弹框" transform="translate(-916.000000, -2136.000000)" fill="#FFFFFF">
            <g id="Navigations,-Paginations,-Tabs-&amp;-All-Content-Related-Elements" transform="translate(35.000000, 37.000000)">
                <g id="title">
                    <g id="弹出模块对话框交互（需要用户确认的）" transform="translate(40.000000, 1948.000000)">
                        <g id="Notifications" transform="translate(830.000000, 90.000000)">
                            <g id="Blue" transform="translate(0.000000, 51.000000)">
                                <path d="M20.619,22.006 L17.38,22.006 C17.167,22.006 16.995,21.805 16.995,21.558 C16.995,21.311 17.167,21.11 17.38,21.11 L18,21 L18,18 L17.38,17.884 C17.167,17.884 16.995,17.683 16.995,17.436 C16.995,17.189 17.167,16.988 17.38,16.988 L19.894,16.988 C19.971,16.988 19.996,16.956 20.007,16.93 C20.004,16.945 20,16.959 20,17 L20,21 L20.619,21.11 C20.832,21.11 21.005,21.311 21.005,21.558 C21.005,21.805 20.832,22.006 20.619,22.006 L20.619,22.006 Z M18,14 L18.98,14 C18.987,14 18.993,13.996 19,13.996 C19.007,13.996 19.013,14 19.02,14 L20,14 L20,14.94 C20.001,14.962 20.012,14.98 20.012,15.001 C20.012,15.023 20.001,15.041 20,15.062 L20,16 L19.033,16 C19.021,16.001 19.011,16.007 19,16.007 C18.988,16.007 18.978,16.001 18.967,16 L18,16 L18,15.061 C17.998,15.04 17.987,15.023 17.987,15.001 C17.987,14.98 17.998,14.962 18,14.941 L18,14 Z M19,10 C14.581,10 11,13.582 11,18 C11,22.418 14.581,26 19,26 C23.418,26 27,22.418 27,18 C27,13.582 23.418,10 19,10 L19,10 Z" id="Info-Icon"></path>
                            </g>
                        </g>
                    </g>
                </g>
            </g>
        </g>
    </g>
</svg>
