<?xml version="1.0" encoding="UTF-8"?>
<svg viewBox="0 0 20 20" version="1.1" xmlns="http://www.w3.org/2000/svg" xmlns:xlink="http://www.w3.org/1999/xlink">
    <!-- Generator: Sketch 57.1 (83088) - https://sketch.com -->
    <title>帮助</title>
    <desc>Created with Sketch.</desc>
    <g id="组件库" stroke="none" stroke-width="1"  fill-rule="evenodd">
        <g id="图标Iconography" transform="translate(-774.000000, -578.000000)" >
            <g id="编组" transform="translate(774.000000, 578.000000)">
                <path d="M4.16666667,10 C4.16666667,6.77825 6.79166667,4.16666667 10,4.16666667 C13.2083333,4.16666667 15.8333333,6.77825 15.8333333,10 C15.8333333,13.22175 13.2083333,15.8333333 10,15.8333333 C6.79166667,15.8333333 4.16666667,13.22175 4.16666667,10 Z M10,3 C6.15,3 3,6.13425 3,10 C3,13.86575 6.15,17 10,17 C13.85,17 17,13.86575 17,10 C17,6.13425 13.85,3 10,3 Z M9.65,9.769 C9.475,10.0169167 9.41666667,10.3085833 9.41666667,10.6381667 L9.41666667,10.987 C9.41666667,11.0838333 9.41666667,11.1725 9.475,11.2413333 C9.59166667,11.3095833 9.65,11.3416667 9.76666667,11.3416667 L10.2333333,11.3416667 C10.35,11.3416667 10.4083333,11.3148333 10.4666667,11.2483333 C10.5833333,11.1835833 10.5833333,11.09725 10.6416667,11.0085833 L10.6416667,10.9893333 L10.6416667,10.9700833 C10.6416667,10.8971667 10.6416667,10.7834167 10.6416667,10.6253333 C10.6416667,10.4631667 10.7,10.32025 10.8166667,10.1925 L10.8166667,10.1901667 C10.9333333,10.042 11.05,9.85591667 11.2833333,9.63133333 L11.2833333,9.63016667 C11.575,9.34666667 11.8083333,9.09233333 11.925,8.86833333 C12.1,8.6245 12.1583333,8.33983333 12.1583333,8.02133333 C12.1583333,7.72616667 12.1,7.44966667 11.925,7.19475 C11.75,6.927 11.5166667,6.71875 11.1666667,6.56475 C10.875,6.402 10.4666667,6.325 10,6.325 C9.59166667,6.325 9.18333333,6.40958333 8.83333333,6.58283333 C8.48333333,6.75433333 8.25,6.98766667 8.01666667,7.284 L8.01666667,7.28458333 C7.84166667,7.57333333 7.725,7.89183333 7.725,8.23716667 L7.725,8.24358333 C7.725,8.33983333 7.78333333,8.43375 7.84166667,8.50608333 C7.9,8.57783333 8.01666667,8.60641667 8.075,8.60641667 L8.54166667,8.60641667 C8.6,8.60641667 8.71666667,8.58308333 8.775,8.52008333 C8.83333333,8.45766667 8.89166667,8.3725 8.89166667,8.28383333 L8.89166667,8.27916667 L8.89166667,8.2745 C8.95,7.96125 9.125,7.74658333 9.24166667,7.60891667 C9.41666667,7.47125 9.65,7.39308333 10,7.39308333 C10.2333333,7.39308333 10.4666667,7.46133333 10.7,7.59316667 L10.7,7.59433333 C10.875,7.71741667 10.9333333,7.87258333 10.9333333,8.07266667 C10.9333333,8.2115 10.875,8.33866667 10.8166667,8.45766667 C10.7,8.59416667 10.5833333,8.77383333 10.35,8.99958333 C10.0583333,9.28308333 9.825,9.53975 9.65,9.769 Z M9.59166667,11.0750833 C9.59166667,11.0494167 9.59166667,11.02025 9.59166667,10.987 L9.59166667,10.6451667 C9.59166667,10.3435833 9.65,10.084 9.825,9.86758333 C9.94166667,9.65116667 10.175,9.40325 10.4666667,9.12383333 C10.7,8.89575 10.875,8.70791667 10.9333333,8.55975 C11.05,8.41158333 11.1083333,8.24941667 11.1083333,8.07266667 C11.1083333,7.9245 11.1083333,7.79383333 10.9916667,7.68066667 C11.1083333,7.79383333 11.1083333,7.9245 11.1083333,8.07266667 C11.1083333,8.24941667 11.05,8.41158333 10.9333333,8.55975 C10.875,8.70791667 10.7,8.89575 10.4666667,9.12383333 C10.175,9.40325 9.94166667,9.65116667 9.825,9.86758333 C9.65,10.084 9.59166667,10.343 9.59166667,10.6451667 L9.59166667,10.987 C9.59166667,11.0196667 9.59166667,11.0494167 9.59166667,11.0750833 Z M11.3416667,6.84183333 C11.2833333,6.79866667 11.1666667,6.759 11.1083333,6.72225 C10.8166667,6.57408333 10.4666667,6.5 10,6.5 C9.59166667,6.5 9.24166667,6.57991667 8.89166667,6.73916667 C8.6,6.899 8.36666667,7.1125 8.19166667,7.38025 C8.01666667,7.64216667 7.9,7.93033333 7.9,8.24358333 C7.9,8.27975 7.9,8.31125 7.9,8.33866667 C7.9,8.31125 7.9,8.27975 7.9,8.24358333 C7.9,7.93033333 8.01666667,7.64216667 8.19166667,7.38025 C8.36666667,7.1125 8.6,6.899 8.89166667,6.73916667 C9.24166667,6.57991667 9.59166667,6.5 10,6.5 C10.4666667,6.5 10.8166667,6.57408333 11.1083333,6.72225 C11.1666667,6.759 11.2833333,6.79866667 11.3416667,6.84183333 Z M10.5833333,12.9166667 C10.5833333,13.2386667 10.35,13.5 10,13.5 C9.65,13.5 9.41666667,13.2386667 9.41666667,12.9166667 C9.41666667,12.5946667 9.65,12.3333333 10,12.3333333 C10.35,12.3333333 10.5833333,12.5946667 10.5833333,12.9166667 Z" id="帮助"></path>
            </g>
        </g>
    </g>
</svg>
