<?xml version="1.0" encoding="UTF-8"?>
<svg  viewBox="0 0 44 44" version="1.1" xmlns="http://www.w3.org/2000/svg" xmlns:xlink="http://www.w3.org/1999/xlink">
    <!-- Generator: Sketch 55.2 (78181) - https://sketchapp.com -->
    <title>形状结合</title>
    <desc>Created with Sketch.</desc>
    <g id="B-数据开发--一期(改)" stroke="none" stroke-width="1"  fill-rule="evenodd">
        <g id="b2.7-发布" transform="translate(-769.000000, -688.000000)" fill="#8492B4" fill-rule="nonzero">
            <g id="编组" transform="translate(769.000000, 688.000000)">
                <path d="M22.9897155,22.2826087 L28.4187708,27.711664 C28.6140329,27.9069261 28.6140329,28.2235086 28.4187708,28.4187708 C28.2235086,28.6140329 27.9069261,28.6140329 27.711664,28.4187708 L22.2826087,22.9897155 L16.8535534,28.4187708 C16.6582912,28.6140329 16.3417088,28.6140329 16.1464466,28.4187708 C15.9511845,28.2235086 15.9511845,27.9069261 16.1464466,27.711664 L21.5755019,22.2826087 L16.1464466,16.8535534 C15.9511845,16.6582912 15.9511845,16.3417088 16.1464466,16.1464466 C16.3417088,15.9511845 16.6582912,15.9511845 16.8535534,16.1464466 L22.2826087,21.5755019 L27.711664,16.1464466 C27.9069261,15.9511845 28.2235086,15.9511845 28.4187708,16.1464466 C28.6140329,16.3417088 28.6140329,16.6582912 28.4187708,16.8535534 L22.9897155,22.2826087 Z M22,44 C9.8497355,44 0,34.1502645 0,22 C0,9.8497355 9.8497355,0 22,0 C34.1502645,0 44,9.8497355 44,22 C44,34.1502645 34.1502645,44 22,44 Z M22,43 C33.5979797,43 43,33.5979797 43,22 C43,10.4020203 33.5979797,1 22,1 C10.4020203,1 1,10.4020203 1,22 C1,33.5979797 10.4020203,43 22,43 Z" id="形状结合"></path>
            </g>
        </g>
    </g>
</svg>
