<?xml version="1.0" encoding="UTF-8"?>
<svg  viewBox="0 0 16 16" version="1.1" xmlns="http://www.w3.org/2000/svg" xmlns:xlink="http://www.w3.org/1999/xlink">
    <!-- Generator: Sketch 57.1 (83088) - https://sketch.com -->
    <title>close</title>
    <desc>Created with Sketch.</desc>
    <g id="组件库" stroke="none" stroke-width="1"  fill-rule="evenodd">
        <g id="图标Iconography" transform="translate(-585.000000, -864.000000)"  fill-rule="nonzero">
            <g id="close-2" transform="translate(585.000000, 864.000000)">
                <path d="M4.64644661,4.64644661 C4.84170876,4.45118446 5.15829124,4.45118446 5.35355339,4.64644661 L5.35355339,4.64644661 L8.239,7.532 L11.1247075,4.64644661 C11.2982738,4.47288026 11.5676982,4.45359511 11.7625664,4.58859116 L11.8318143,4.64644661 C12.0270764,4.84170876 12.0270764,5.15829124 11.8318143,5.35355339 L11.8318143,5.35355339 L8.946,8.239 L11.8318143,11.1247075 C12.0053806,11.2982738 12.0246658,11.5676982 11.8896697,11.7625664 L11.8318143,11.8318143 C11.6365521,12.0270764 11.3199696,12.0270764 11.1247075,11.8318143 L11.1247075,11.8318143 L8.239,8.946 L5.35355339,11.8318143 C5.17998704,12.0053806 4.91056264,12.0246658 4.7156945,11.8896697 L4.64644661,11.8318143 C4.45118446,11.6365521 4.45118446,11.3199696 4.64644661,11.1247075 L4.64644661,11.1247075 L7.532,8.239 L4.64644661,5.35355339 C4.47288026,5.17998704 4.45359511,4.91056264 4.58859116,4.7156945 Z" id="close"></path>
            </g>
        </g>
    </g>
</svg>
