<?xml version="1.0" encoding="UTF-8"?>
<svg width="20px" height="20px" viewBox="0 0 20 20" version="1.1" xmlns="http://www.w3.org/2000/svg" xmlns:xlink="http://www.w3.org/1999/xlink">
    <!-- Generator: Sketch 57.1 (83088) - https://sketch.com -->
    <title>缩起</title>
    <desc>Created with Sketch.</desc>
    <g id="组件库" stroke="none" stroke-width="1"  fill-rule="evenodd">
        <g id="图标Iconography" transform="translate(-102.000000, -861.000000)"  fill-rule="nonzero">
            <g id="缩起-2" transform="translate(102.000000, 861.000000)">
                <path d="M17.5,16 C17.7761424,16 18,16.2238576 18,16.5 C18,16.7761424 17.7761424,17 17.5,17 L3.5,17 C3.22385763,17 3,16.7761424 3,16.5 C3,16.2238576 3.22385763,16 3.5,16 L17.5,16 Z M5.915,8.1514887 C6.11,8.34948965 6.105,8.66599118 5.905,8.8584921 L4.73,10 L17.5,10 C17.775,10 18,10.2234987 18,10.5 C18,10.7760013 17.775,11 17.5,11 L4.73,11 L5.905,12.1415079 C6.105,12.3340088 6.11,12.6505103 5.915,12.8485113 C5.725,13.0465123 5.41,13.0510123 5.21,12.8585113 L3.15,10.8585017 C3.055,10.7645013 3,10.6350006 3,10.5 C3,10.3649994 3.055,10.2354987 3.15,10.1414983 L5.21,8.14148865 C5.41,7.94898773 5.725,7.95348775 5.915,8.1514887 Z M17.5,4 C17.7761424,4 18,4.22385763 18,4.5 C18,4.77614237 17.7761424,5 17.5,5 L3.5,5 C3.22385763,5 3,4.77614237 3,4.5 C3,4.22385763 3.22385763,4 3.5,4 L17.5,4 Z" id="缩起"></path>
            </g>
        </g>
    </g>
</svg>
