<?xml version="1.0" encoding="UTF-8"?>
<svg width="20px" height="20px" viewBox="0 0 20 20" version="1.1" xmlns="http://www.w3.org/2000/svg" xmlns:xlink="http://www.w3.org/1999/xlink">
    <!-- Generator: Sketch 57.1 (83088) - https://sketch.com -->
    <title>展开</title>
    <desc>Created with Sketch.</desc>
    <g id="组件库" stroke="none" stroke-width="1"  fill-rule="evenodd">
        <g id="图标Iconography" transform="translate(-197.000000, -861.000000)"  fill-rule="nonzero">
            <g id="展开-2" transform="translate(197.000000, 861.000000)">
                <path d="M17.5,16 C17.7761424,16 18,16.2238576 18,16.5 C18,16.7761424 17.7761424,17 17.5,17 L3.5,17 C3.22385763,17 3,16.7761424 3,16.5 C3,16.2238576 3.22385763,16 3.5,16 L17.5,16 Z M15.7194033,8.08461321 L15.79,8.14148865 L17.85,10.1414983 C17.945,10.2354987 18,10.3649994 18,10.5 C18,10.6080005 17.9648,10.712481 17.90208,10.7980814 L17.85,10.8585017 L15.79,12.8585113 C15.59,13.0510123 15.275,13.0465123 15.085,12.8485113 C14.9116667,12.6725105 14.896358,12.4028795 15.0355624,12.2099348 L15.095,12.1415079 L16.27,11 L3.5,11 C3.225,11 3,10.7760013 3,10.5 C3,10.254221 3.17777778,10.0503207 3.41042524,10.0080439 L3.5,10 L16.27,10 L15.095,8.8584921 C14.895,8.66599118 14.89,8.34948965 15.085,8.1514887 C15.2538889,7.97548786 15.5215432,7.95237663 15.7194033,8.08461321 Z M17.5,4 C17.7761424,4 18,4.22385763 18,4.5 C18,4.77614237 17.7761424,5 17.5,5 L3.5,5 C3.22385763,5 3,4.77614237 3,4.5 C3,4.22385763 3.22385763,4 3.5,4 L17.5,4 Z" id="展开"></path>
            </g>
        </g>
    </g>
</svg>
