<?xml version="1.0" encoding="UTF-8"?>
<svg  viewBox="0 0 20 20" version="1.1" xmlns="http://www.w3.org/2000/svg" xmlns:xlink="http://www.w3.org/1999/xlink">
    <!-- Generator: Sketch 57.1 (83088) - https://sketch.com -->
    <title>注释</title>
    <desc>Created with Sketch.</desc>
    <g id="组件库" stroke="none" stroke-width="1"  fill-rule="evenodd">
        <g id="图标Iconography" transform="translate(-678.000000, -655.000000)" >
            <g id="注释-2" transform="translate(678.000000, 655.000000)">
                <path d="M13.1264648,3 L16,6.86523438 L16,17 L5,17 L5,3 L13.1264648,3 Z M11.576,4 L6,4 L6,16 L15,16 L15,7.911 L11.5766602,7.91162109 L11.576,4 Z M12.5,12 C12.7761424,12 13,12.2238576 13,12.5 C13,12.7761424 12.7761424,13 12.5,13 L8.5,13 C8.22385763,13 8,12.7761424 8,12.5 C8,12.2238576 8.22385763,12 8.5,12 L12.5,12 Z M8.89869356,8.20160958 L12.5239247,9.89208263 C12.7741947,10.0087854 12.8824723,10.3062757 12.7657695,10.5565457 C12.6490667,10.8068156 12.3515764,10.9150932 12.1013064,10.7983904 L8.4760753,9.10791737 C8.22580531,8.99121456 8.11752772,8.69372433 8.23423053,8.44345435 C8.35093334,8.19318436 8.64842357,8.08490677 8.89869356,8.20160958 Z M12.6238262,4 L12.576,4 L12.5766602,6.91162109 L14.788,6.911 L12.6238262,4 Z" id="注释"></path>
            </g>
        </g>
    </g>
</svg>
