<?xml version="1.0" encoding="UTF-8"?>
<svg  viewBox="0 0 20 20" version="1.1" xmlns="http://www.w3.org/2000/svg" xmlns:xlink="http://www.w3.org/1999/xlink">
    <!-- Generator: Sketch 57.1 (83088) - https://sketch.com -->
    <title>数据安全</title>
    <desc>Created with Sketch.</desc>
    <g id="组件库" stroke="none" stroke-width="1"  fill-rule="evenodd">
        <g id="图标Iconography" transform="translate(-487.000000, -215.000000)"  fill-rule="nonzero">
            <g id="编组-14" transform="translate(487.000000, 215.000000)">
                <path d="M17,3.3 L17,11.5 C17,12 16.8992806,12.5 16.6978417,13 L16.6978417,13 C16.4964029,13.5 16.0935252,14 15.7913669,14.4 L15.7913669,14.4 C15.3884892,14.9 14.9856115,15.3 14.4820144,15.7 L14.4820144,15.7 C13.9784173,16.1 13.4748201,16.5 12.971223,16.8 L12.971223,16.8 C12.4676259,17.1 12.0647482,17.4 11.5611511,17.6 C11.057554,17.8 10.6546763,18 10.352518,18 L10.1510791,18 L9.94964029,18 C9.54676259,17.9 9.14388489,17.8 8.64028777,17.6 L8.64028777,17.6 C8.13669065,17.4 7.63309353,17.1 7.1294964,16.8 L7.1294964,16.8 C6.62589928,16.5 6.12230216,16.1 5.61870504,15.7 L5.61870504,15.7 C5.11510791,15.3 4.71223022,14.9 4.30935252,14.4 C3.90647482,13.9 3.60431655,13.5 3.4028777,13 C3.20143885,12.5 3,12 3,11.5 L3,3.3 L3.60431655,3.2 L10.0503597,2 L16.5971223,3.3 L17,3.3 L17,3.3 Z M10.0503597,3.2 L10.0503597,3.2 L4.41007194,4.2 L4.41007194,9.3 L10.0503597,9.3 L10.0503597,3.2 L10.0503597,3.2 Z M15.5899281,9.3 L10.0503597,9.3 L10.0503597,16.6 C10.4532374,16.5 10.7553957,16.4 11.2589928,16.2 L11.2589928,16.2 C11.6618705,16 12.0647482,15.8 12.4676259,15.6 L12.4676259,15.6 C12.8705036,15.4 13.2733813,15.1 13.676259,14.8 L13.676259,14.8 C14.0791367,14.5 14.381295,14.2 14.6834532,13.8 C14.9856115,13.5 15.1870504,13.1 15.3884892,12.7 C15.5899281,12.3 15.6906475,12 15.6906475,11.6 L15.5899281,9.3 L15.5899281,9.3 L15.5899281,9.3 Z" id="数据安全"></path>
            </g>
        </g>
    </g>
</svg>
