<?xml version="1.0" encoding="UTF-8"?>
<svg  viewBox="0 0 20 20" version="1.1" xmlns="http://www.w3.org/2000/svg" xmlns:xlink="http://www.w3.org/1999/xlink">
    <!-- Generator: Sketch 57.1 (83088) - https://sketch.com -->
    <title>数据集成</title>
    <desc>Created with Sketch.</desc>
    <g id="组件库" stroke="none" stroke-width="1"  fill-rule="evenodd">
        <g id="图标Iconography" transform="translate(-582.000000, -215.000000)" fill-rule="nonzero">
            <g id="编组-15" transform="translate(582.000000, 215.000000)">
                <path d="M11.0844156,9.5974026 L11.0844156,11.2532468 L16.2467532,11.2532468 C16.3441558,11.2532468 16.4415584,11.3506494 16.4415584,11.4480519 L16.4415584,13.8831169 L17.512987,13.8831169 L17.512987,13.8831169 C17.8051948,13.8831169 18,14.0779221 18,14.3701299 L18,16.512987 L18,16.512987 C18,16.8051948 17.8051948,17 17.512987,17 L14.2987013,17 L14.2987013,17 C14.0064935,17 13.7142857,16.8051948 13.7142857,16.512987 L13.7142857,16.512987 L13.7142857,14.3701299 L13.7142857,14.3701299 C13.7142857,14.0779221 13.9090909,13.8831169 14.2987013,13.8831169 L15.3701299,13.8831169 L15.3701299,12.2272727 L11.0844156,12.2272727 L11.0844156,13.8831169 L12.1558442,13.8831169 L12.1558442,13.8831169 C12.4480519,13.8831169 12.7402597,14.0779221 12.7402597,14.3701299 L12.7402597,16.512987 L12.7402597,16.512987 C12.7402597,16.8051948 12.5454545,17 12.1558442,17 L8.94155844,17 L8.94155844,17 C8.64935065,17 8.35714286,16.8051948 8.35714286,16.512987 L8.35714286,16.512987 L8.35714286,14.3701299 L8.35714286,14.3701299 C8.35714286,14.0779221 8.55194805,13.8831169 8.94155844,13.8831169 L10.012987,13.8831169 L10.012987,12.2272727 L5.72727273,12.2272727 L5.72727273,13.8831169 L6.7987013,13.8831169 L6.7987013,13.8831169 C7.09090909,13.8831169 7.38311688,14.0779221 7.38311688,14.3701299 L7.38311688,16.512987 L7.38311688,16.512987 C7.38311688,16.8051948 7.18831169,17 6.7987013,17 L3.58441558,17 L3.58441558,17 C3.29220779,17 3,16.8051948 3,16.512987 L3,16.512987 L3,14.3701299 L3,14.3701299 C3,14.0779221 3.19480519,13.8831169 3.58441558,13.8831169 L4.65584416,13.8831169 L4.65584416,12.2272727 L4.65584416,12.2272727 L4.65584416,11.3506494 C4.65584416,11.2532468 4.75324675,11.1558442 4.85064935,11.1558442 L10.012987,11.1558442 L10.012987,9.5 L3.97402597,9.5 L3.97402597,9.5 C3.68181818,9.5 3.38961039,9.30519481 3.38961039,9.01298701 L3.38961039,9.01298701 L3.38961039,2.58441558 L3.38961039,2.58441558 C3.38961039,2.29220779 3.58441558,2 3.97402597,2 L17.025974,2 L17.025974,2 C17.3181818,2 17.6103896,2.19480519 17.6103896,2.58441558 L17.6103896,9.01298701 L17.6103896,9.01298701 C17.6103896,9.30519481 17.4155844,9.5 17.025974,9.5 L11.0844156,9.5 L11.0844156,9.5974026 Z M12.6428571,3.55844156 L12.6428571,3.55844156 C12.5454545,3.46103896 12.4480519,3.46103896 12.3506494,3.55844156 C12.3506494,3.55844156 12.3506494,3.55844156 12.3506494,3.55844156 L10.3051948,5.6038961 L10.3051948,5.6038961 C10.2077922,5.7012987 10.1103896,5.7012987 10.012987,5.6038961 C10.012987,5.6038961 10.012987,5.6038961 10.012987,5.6038961 L9.13636364,4.72727273 L9.13636364,4.72727273 C9.03896104,4.62987013 8.94155844,4.62987013 8.84415584,4.72727273 L8.06493506,5.50649351 L8.06493506,5.50649351 C7.96753247,5.6038961 7.96753247,5.7012987 8.06493506,5.7987013 C8.06493506,5.7987013 8.06493506,5.7987013 8.06493506,5.7987013 L10.012987,7.74675325 L10.012987,7.74675325 C10.1103896,7.84415584 10.2077922,7.84415584 10.3051948,7.74675325 C10.3051948,7.74675325 10.3051948,7.74675325 10.3051948,7.74675325 L13.4220779,4.62987013 L13.4220779,4.62987013 C13.5194805,4.53246753 13.5194805,4.43506494 13.4220779,4.33766234 C13.4220779,4.33766234 13.4220779,4.33766234 13.4220779,4.33766234 L12.6428571,3.55844156 L12.6428571,3.55844156 Z" id="数据集成"></path>
            </g>
        </g>
    </g>
</svg>
