<?xml version="1.0" encoding="UTF-8"?>
<svg  viewBox="0 0 20 20" version="1.1" xmlns="http://www.w3.org/2000/svg" xmlns:xlink="http://www.w3.org/1999/xlink">
    <!-- Generator: Sketch 57.1 (83088) - https://sketch.com -->
    <title>数据服务</title>
    <desc>Created with Sketch.</desc>
    <g id="组件库" stroke="none" stroke-width="1"  fill-rule="evenodd">
        <g id="图标Iconography" transform="translate(-294.000000, -215.000000)"  fill-rule="nonzero">
            <g id="编组-12" transform="translate(294.000000, 215.000000)">
                <path d="M18.2,12.780686 L18.2,7.46417561 C18.7,7.26355257 19,6.66168348 19,6.05981438 C19,5.25732225 18.4,4.55514163 17.6,4.55514163 L17.6,4.55514163 C17.3,4.55514163 17,4.65545315 16.7,4.85607618 L11.8,2.14766524 C11.6,1.3451731 10.9,0.843615521 10.1,1.04423855 C9.5,1.14455007 9.1,1.74641917 9,2.34828827 L4.4,5.05669921 C4.1,4.75576466 3.8,4.55514163 3.4,4.55514163 C2.6,4.55514163 2,5.15701073 2,5.95950286 L2,5.95950286 C2,6.66168348 2.5,7.26355257 3.1,7.46417561 L3.1,12.5800629 C2.5,12.780686 2,13.3825551 2,14.0847357 C2,14.8872278 2.6,15.5894084 3.4,15.5894084 L3.4,15.5894084 C3.8,15.5894084 4.1,15.3887854 4.4,15.0878509 L9.1,17.6959503 C9.2,18.4984424 9.8,19 10.5,19 C11.2,19 11.7,18.4984424 11.9,17.8965733 L16.7,15.1881624 C17,15.3887854 17.3,15.4890969 17.6,15.4890969 C18.4,15.4890969 19,14.8872278 19,14.0847357 L19,14.0847357 C19,13.4828666 18.7,12.981309 18.2,12.780686 Z M16.5,12.981309 L14.3,11.8778823 L14.3,8.36697926 L16.5,7.26355257 C16.7,7.46417561 16.9,7.56448712 17.1,7.56448712 L17.1,12.6803745 C16.9,12.6803745 16.7,12.780686 16.5,12.981309 Z M16.1,6.26043741 L13.8,7.46417561 L10.9,5.75887983 L10.9,4.05358405 C11.2,3.95327253 11.5,3.65233798 11.7,3.35140343 L16.1,5.85919134 L16.1,6.26043741 L16.1,6.26043741 Z M10,3.95327253 L10,5.75887983 L7.2,7.46417561 L4.8,6.16012589 L4.8,5.85919134 L9.3,3.35140343 C9.5,3.65233798 9.7,3.85296101 10,3.95327253 L10,3.95327253 Z M4.4,7.16324106 L6.8,8.46729077 L6.8,11.6772593 L4.4,13.0816205 C4.3,12.981309 4.2,12.8809975 4,12.780686 L4,7.46417561 C4.2,7.36386409 4.3,7.26355257 4.4,7.16324106 Z M4.8,13.8841127 L7.2,12.5800629 L10,14.2853587 L10,16.090966 C9.7,16.1912775 9.4,16.3919006 9.3,16.6928351 L4.8,14.1850472 L4.8,13.8841127 L4.8,13.8841127 Z M10.9,16.1912775 L10.9,14.3856702 L13.8,12.5800629 L16.1,13.7838011 L16.1,14.0847357 C16.1,14.1850472 16.1,14.2853587 16.1,14.3856702 L11.6,16.8934582 C11.5,16.5925236 11.2,16.2915891 10.9,16.1912775 L10.9,16.1912775 Z" id="数据服务"></path>
            </g>
        </g>
    </g>
</svg>
