<?xml version="1.0" encoding="UTF-8"?>
<svg  viewBox="0 0 20 20" version="1.1" xmlns="http://www.w3.org/2000/svg" xmlns:xlink="http://www.w3.org/1999/xlink">
    <!-- Generator: Sketch 57.1 (83088) - https://sketch.com -->
    <title>数据加工</title>
    <desc>Created with Sketch.</desc>
    <g id="组件库" stroke="none" stroke-width="1"  fill-rule="evenodd">
        <g id="图标Iconography" transform="translate(-197.000000, -215.000000)"  fill-rule="nonzero">
            <g id="编组-11" transform="translate(197.000000, 215.000000)">
                <path d="M15.5567145,11 L16.4485007,11 C16.7457627,11 16.9439374,11.3 16.9439374,11.6 L16.9439374,11.6 L16.9439374,11.8 C17.0430248,11.8 17.1421121,11.9 17.2411995,11.9 C17.3402868,12 17.4393742,12 17.5384615,12.1 L17.5384615,12.1 L17.7366362,12 C17.8357236,12 17.934811,11.9 18.0338983,11.9 C18.232073,11.9 18.4302477,12 18.5293351,12.2 L18.5293351,12.2 L18.9256845,13 C19.0247718,13.1 19.0247718,13.3 18.9256845,13.4 C18.9256845,13.5 18.8265971,13.6 18.6284224,13.7 L18.6284224,13.7 L18.3311604,13.8 C18.3311604,14 18.3311604,14.2 18.3311604,14.4 L18.3311604,14.4 L18.5293351,14.5 C18.6284224,14.6 18.7275098,14.7 18.7275098,14.8 C18.7275098,14.9 18.7275098,15.1 18.6284224,15.2 L18.6284224,15.2 L18.1329857,15.9 C18.0338983,16.1 17.8357236,16.1 17.6375489,16.1 C17.5384615,16.1 17.4393742,16.1 17.3402868,16 L17.3402868,16 L17.3402868,16 C17.1421121,16.1 16.9439374,16.2 16.8448501,16.3 L16.8448501,16.3 L16.8448501,16.5 C16.8448501,16.8 16.547588,17 16.3494133,17 L16.3494133,17 L16.3494133,17 L15.4576271,17 C15.1603651,17 14.9621904,16.7 14.9621904,16.4 L14.9621904,16.4 L14.9621904,16.2 C14.863103,16.2 14.7640156,16.1 14.6649283,16.1 C14.5658409,16 14.4667536,16 14.3676662,15.9 L14.3676662,15.9 L14.1694915,16 C14.0704042,16 13.9713168,16.1 13.8722295,16.1 C13.6740548,16.1 13.4758801,16 13.3767927,15.8 L13.3767927,15.8 L12.9804433,15 C12.8813559,14.9 12.8813559,14.7 12.9804433,14.6 C12.9804433,14.5 13.0795306,14.4 13.2777053,14.3 L13.2777053,14.3 L13.4758801,14.2 C13.4758801,14 13.4758801,13.8 13.4758801,13.6 L13.4758801,13.6 L13.178618,13.5 C13.0795306,13.4 12.9804433,13.3 12.9804433,13.2 C12.9804433,13.1 12.9804433,12.9 13.0795306,12.8 L13.0795306,12.8 L13.5749674,12.1 C13.6740548,11.9 13.8722295,11.9 14.0704042,11.9 C14.1694915,11.9 14.2685789,11.9 14.3676662,12 L14.3676662,12 L14.5658409,12.1 C14.7640156,12 14.9621904,11.9 15.0612777,11.8 L15.0612777,11.8 L15.0612777,11.6 C14.9621904,11.2 15.2594524,11 15.5567145,11 L15.5567145,11 Z M9.41329857,2 C9.61147327,2 9.80964798,2.1 10.0078227,2.2 L10.0078227,2.2 L11.791395,3.3 C12.0886571,3.5 12.2868318,3.7 12.3859192,4.1 C12.4850065,4.4 12.3859192,4.8 12.2868318,5.1 L12.2868318,5.1 L11.9895698,5.6 C12.2868318,6 12.5840939,6.5 12.7822686,6.9 L12.7822686,6.9 L13.3767927,6.9 C14.0704042,6.9 14.6649283,7.5 14.6649283,8.2 L14.6649283,8.2 L14.6649283,10.3 C14.6649283,11 14.0704042,11.6 13.3767927,11.6 L13.3767927,11.6 L12.8813559,11.6 C12.6831812,12.1 12.3859192,12.5 12.0886571,12.9 L12.0886571,12.9 L12.3859192,13.4 C12.5840939,13.7 12.5840939,14 12.4850065,14.4 C12.3859192,14.7 12.1877445,15 11.8904824,15.2 L11.8904824,15.2 L10.10691,16.3 C9.90873533,16.4 9.71056063,16.5 9.51238592,16.5 C9.01694915,16.5 8.62059974,16.3 8.42242503,15.9 L8.42242503,15.9 L8.12516297,15.4 C7.62972621,15.5 7.13428944,15.5 6.53976532,15.4 L6.53976532,15.4 L6.24250326,15.9 C6.04432855,16.3 5.54889179,16.5 5.15254237,16.5 C4.95436767,16.5 4.75619296,16.4 4.55801825,16.3 L4.55801825,16.3 L2.77444589,15.2 C2.47718383,15 2.27900913,14.8 2.17992177,14.4 C2.08083442,14.1 2.17992177,13.7 2.27900913,13.4 L2.27900913,13.4 L2.57627119,12.9 C2.27900913,12.5 1.98174707,12 1.78357236,11.6 L1.78357236,11.6 L1.28813559,11.6 C0.59452412,11.6 0,11 0,10.3 L0,10.3 L0,8.2 C0,7.5 0.59452412,6.9 1.28813559,6.9 L1.28813559,6.9 L1.78357236,6.9 C1.98174707,6.4 2.27900913,6 2.57627119,5.6 L2.57627119,5.6 L2.27900913,5.1 C2.08083442,4.8 2.08083442,4.5 2.17992177,4.1 C2.27900913,3.8 2.47718383,3.5 2.77444589,3.3 L2.77444589,3.3 L4.55801825,2.2 C4.75619296,2.1 4.95436767,2 5.15254237,2 C5.64797914,2 6.04432855,2.2 6.24250326,2.6 L6.24250326,2.6 L6.53976532,3.1 C7.03520209,3 7.53063885,3 8.12516297,3.1 L8.12516297,3.1 L8.42242503,2.6 C8.62059974,2.2 9.01694915,2 9.41329857,2 Z M15.8539765,13 C15.5567145,13 15.1603651,13.2 15.0612777,13.5 C14.7640156,14 14.863103,14.6 15.3585398,14.9 C15.5567145,15 15.6558018,15.1 15.8539765,15.1 C16.1512386,15.1 16.547588,14.9 16.6466754,14.6 C16.7457627,14.4 16.8448501,14.1 16.7457627,13.9 C16.6466754,13.6 16.547588,13.4 16.2503259,13.3 C16.2503259,13.1 16.0521512,13 15.8539765,13 Z M7.33246415,6.6 C5.9452412,6.6 4.85528031,7.7 4.85528031,9.1 C4.85528031,10.5 5.9452412,11.6 7.33246415,11.6 C8.71968709,11.6 9.80964798,10.5 9.80964798,9.1 C9.80964798,7.7 8.71968709,6.6 7.33246415,6.6 Z" id="数据加工"></path>
            </g>
        </g>
    </g>
</svg>
