<?xml version="1.0" encoding="UTF-8"?>
<svg  viewBox="0 0 20 20" version="1.1" xmlns="http://www.w3.org/2000/svg" xmlns:xlink="http://www.w3.org/1999/xlink">
    <!-- Generator: Sketch 57.1 (83088) - https://sketch.com -->
    <title>数据质量</title>
    <desc>Created with Sketch.</desc>
    <g id="组件库" stroke="none" stroke-width="1"  fill-rule="evenodd">
        <g id="图标Iconography" transform="translate(-390.000000, -215.000000)"  fill-rule="nonzero">
            <g id="编组-13" transform="translate(390.000000, 215.000000)">
                <path d="M3.8,2 L16.2,2 C17.2,2 18,2.81632653 18,3.83673469 L18,12 C18,13.0204082 17.2,13.8367347 16.2,13.8367347 L3.8,13.8367347 C2.8,13.8367347 2,13.0204082 2,12 L2,3.83673469 C2,2.81632653 2.8,2 3.8,2 Z M4.3,9.14285714 L6.9,9.14285714 L7.4,10.5714286 C7.5,10.9795918 8.1,10.9795918 8.2,10.5714286 L9.9,6.18367347 L11.2,8.93877551 L11.2,8.93877551 C11.3,9.14285714 11.4,9.24489796 11.6,9.24489796 L15.9,9.24489796 L15.9,9.24489796 C16.1,9.24489796 16.3,9.04081633 16.3,8.83673469 C16.3,8.63265306 16.1,8.42857143 15.9,8.42857143 L15.9,8.42857143 L11.9,8.42857143 L10.3,5.06122449 C10.1,4.75510204 9.6,4.75510204 9.5,5.06122449 L7.8,9.34693878 L7.6,8.73469388 L7.6,8.73469388 C7.5,8.53061224 7.4,8.42857143 7.2,8.42857143 L4.3,8.42857143 L4.3,8.42857143 C4.1,8.42857143 3.9,8.63265306 3.9,8.83673469 C3.8,8.93877551 4,9.14285714 4.3,9.14285714 L4.3,9.14285714 Z M5,15.5714286 L15,15.5714286 L15,15.5714286 C15.2,15.5714286 15.4,15.7755102 15.4,15.9795918 L15.4,15.9795918 L15.4,16.5918367 L15.4,16.5918367 C15.4,16.7959184 15.2,17 15,17 L15,17 L5,17 L5,17 C4.8,17 4.6,16.7959184 4.6,16.5918367 C4.6,16.5918367 4.6,16.5918367 4.6,16.5918367 L4.6,15.9795918 L4.6,15.9795918 C4.7,15.7755102 4.8,15.5714286 5,15.5714286 L5,15.5714286 L5,15.5714286 Z" id="数据质量"></path>
            </g>
        </g>
    </g>
</svg>
