<?xml version="1.0" encoding="UTF-8"?>
<svg  viewBox="0 0 20 20" version="1.1" xmlns="http://www.w3.org/2000/svg" xmlns:xlink="http://www.w3.org/1999/xlink">
    <!-- Generator: Sketch 57.1 (83088) - https://sketch.com -->
    <title>日期</title>
    <desc>Created with Sketch.</desc>
    <g id="组件库" stroke="none" stroke-width="1"  fill-rule="evenodd">
        <g id="图标Iconography" transform="translate(-390.000000, -291.000000)" fill="#CED0DA" fill-rule="nonzero">
            <g id="日期-3" transform="translate(390.000000, 291.000000)">
                <g id="日期-2">
                    <path d="M6,11 L8,11 L8,9 L6,9 L6,11 Z M6,14 L8,14 L8,12 L6,12 L6,14 Z M9,11 L11,11 L11,9 L9,9 L9,11 Z M9,14 L11,14 L11,12 L9,12 L9,14 Z M12,11 L14,11 L14,9 L12,9 L12,11 Z M12,14 L14,14 L14,12 L12,12 L12,14 Z M16,8 C16,7.448 15.552,7 15,7 L5,7 C4.448,7 4,7.448 4,8 L4,15 C4,15.552 4.448,16 5,16 L15,16 C15.552,16 16,15.552 16,15 L16,8 Z M16,18 L4,18 C2.896,18 2,17.105 2,16 L2,4 C2,2.895 2.896,2 4,2 L6,2 L6,3 C6,3.552 6.448,4 7,4 C7.552,4 8,3.552 8,3 L8,2 L12,2 L12,3 C12,3.552 12.448,4 13,4 C13.552,4 14,3.552 14,3 L14,2 L16,2 C17.105,2 18,2.895 18,4 L18,16 C18,17.105 17.105,18 16,18 L16,18 Z" id="日期"></path>
                </g>
            </g>
        </g>
    </g>
</svg>
