<?xml version="1.0" encoding="UTF-8"?>
<svg width="14px" height="14px" viewBox="0 0 14 14" version="1.1" xmlns="http://www.w3.org/2000/svg" xmlns:xlink="http://www.w3.org/1999/xlink">
    <!-- Generator: Sketch 61.1 (89650) - https://sketch.com -->
    <title>btn_delete_slice</title>
    <desc>Created with Sketch.</desc>
    <g id="1.20" stroke="none" stroke-width="1" fill="none" fill-rule="evenodd">
        <g id="画板" transform="translate(-220.000000, -240.000000)">
            <g id="btn_delete" transform="translate(220.000000, 240.000000)">
                <path d="M6.98413443,13.9682689 C3.12749843,13.9682689 0,10.8404267 0,6.98413443 C0,3.12784218 3.12749843,0 6.98413443,0 C10.8407704,0 13.9682689,3.12784218 13.9682689,6.98413443 C13.9682689,10.8404267 10.8100477,13.9682689 6.98413443,13.9682689 Z" id="形状" fill="#E3E3E3" fill-rule="nonzero"></path>
                <path d="M7.71596857,6.99972808 L9.39680428,5.32614361 C9.59476293,5.12891008 9.59476293,4.80985585 9.39680428,4.61262232 C9.19884563,4.41611392 8.87834115,4.41611392 8.68110763,4.61262232 L7.00317241,6.28403143 L5.32886282,4.6024706 C5.13235442,4.40523707 4.81330018,4.40523707 4.61606666,4.6024706 C4.41883313,4.80042925 4.41883313,5.12093373 4.61606666,5.31889237 L6.28675064,6.99682759 L4.60301444,8.67403767 C4.40505579,8.8712712 4.40505579,9.19032543 4.60301444,9.38683383 C4.80024797,9.58406736 5.12075244,9.58406736 5.31871109,9.38683383 L7.00027192,7.71252424 L8.67748201,9.39698556 C8.87399041,9.59494421 9.19304464,9.59494421 9.39027817,9.39698556 C9.58678657,9.19902691 9.58678657,8.87852243 9.39027817,8.68128891 L7.71596857,6.99972808 Z" id="Delete-Icon" fill="#6C748D"></path>
            </g>
        </g>
    </g>
</svg>