<?xml version="1.0" encoding="UTF-8"?>
<svg  viewBox="0 0 20 20" version="1.1" xmlns="http://www.w3.org/2000/svg" xmlns:xlink="http://www.w3.org/1999/xlink">
    <!-- Generator: Sketch 57.1 (83088) - https://sketch.com -->
    <title>编辑</title>
    <desc>Created with Sketch.</desc>
    <g id="组件库" stroke="none" stroke-width="1"  fill-rule="evenodd">
        <g id="图标Iconography" transform="translate(-869.000000, -578.000000)" >
            <g id="编辑-2" transform="translate(869.000000, 578.000000)">
                <path d="M5,15.8031713 L5,14.5886523 L15.6071598,14.5886523 L15.6071598,15.8031713 L5,15.8031713 Z M9.51215906,13.3741397 L9.41964116,13.2816218 L9.41964118,13.2816218 C9.33174973,13.3388558 9.22983134,13.3708584 9.12499821,13.3741397 L7.35714361,13.3741397 L7.35714356,13.3741397 C6.70623553,13.3741397 6.17857007,12.8464742 6.17857007,12.1955662 C6.17857007,12.1955662 6.17857007,12.1955662 6.17857007,12.1955662 L6.17857007,10.3192852 L6.17857007,10.3192853 C6.18107764,10.2161112 6.21141445,10.115531 6.2663737,10.0281776 L6.17857007,9.93860598 L11.5952976,4.35570202 L11.5952975,4.35570206 C12.0360881,3.89550944 12.7664798,3.87978286 13.2266725,4.32057362 C13.2386326,4.33202958 13.2503448,4.34374181 13.2618007,4.3557019 L14.9283027,6.07347636 L14.9283028,6.07347646 C15.3885953,6.55356257 15.3885953,7.31116159 14.9283026,7.79125092 L9.51215906,13.3741397 Z M13.6790101,6.50305798 L12.8457591,5.6438791 L12.8457591,5.64387909 C12.625363,5.41378278 12.260168,5.40591948 12.0300716,5.62631495 C12.0240916,5.63204292 12.0182355,5.63789899 12.0125075,5.64387909 L7.01182542,10.7971864 L7.35714794,11.1531146 L7.35714794,11.5703299 L7.35714794,11.57033 C7.35714799,11.8957832 7.62098067,12.1596159 7.94643388,12.1596159 L8.33359458,12.1596159 L7.84861165,11.6599006 L8.67891549,12.5155442 L13.6790175,7.36223694 L13.6790175,7.36223693 C13.9093523,7.12215521 13.9093523,6.74313816 13.6790175,6.50305805 L13.6790101,6.50305798 Z" id="编辑"></path>
            </g>
        </g>
    </g>
</svg>
