<?xml version="1.0" encoding="UTF-8"?>
<svg  viewBox="0 0 10 2" version="1.1" xmlns="http://www.w3.org/2000/svg" xmlns:xlink="http://www.w3.org/1999/xlink">
    <!-- Generator: Sketch 57.1 (83088) - https://sketch.com -->
    <title>形状结合</title>
    <desc>Created with Sketch.</desc>
    <g id="a1.0-模板发布-0320+视觉" stroke="none" stroke-width="1"  fill-rule="evenodd">
        <g id="1.对象模版-没选对象" transform="translate(-467.000000, -114.000000)">
            <g id="矩形-2" transform="translate(250.000000, 60.000000)">
                <g id="Previous-Page-Button" transform="translate(1.000000, 40.000000)">
                    <g id="编组-2" transform="translate(185.000000, 3.000000)">
                        <path d="M32,11 C32.5522847,11 33,11.4477153 33,12 C33,12.5522847 32.5522847,13 32,13 C31.4477153,13 31,12.5522847 31,12 C31,11.4477153 31.4477153,11 32,11 Z M36,11 C36.5522847,11 37,11.4477153 37,12 C37,12.5522847 36.5522847,13 36,13 C35.4477153,13 35,12.5522847 35,12 C35,11.4477153 35.4477153,11 36,11 Z M40,11 C40.5522847,11 41,11.4477153 41,12 C41,12.5522847 40.5522847,13 40,13 C39.4477153,13 39,12.5522847 39,12 C39,11.4477153 39.4477153,11 40,11 Z" id="形状结合"></path>
                    </g>
                </g>
            </g>
        </g>
    </g>
</svg>
