<?xml version="1.0" encoding="UTF-8"?>
<svg width="20px" height="20px" viewBox="0 0 20 20" version="1.1" xmlns="http://www.w3.org/2000/svg" xmlns:xlink="http://www.w3.org/1999/xlink">
    <!-- Generator: Sketch 57.1 (83088) - https://sketch.com -->
    <title>导出</title>
    <desc>Created with Sketch.</desc>
    <g id="组件库" stroke="none" stroke-width="1" fill="none" fill-rule="evenodd">
        <g id="图标Iconography" transform="translate(-197.000000, -698.000000)" fill="#969CA6">
            <g id="导出-2" transform="translate(197.000000, 698.000000)">
                <path d="M10.5,11.5 C10.5,11.7765 10.3,12 10,12 C9.7,12 9.5,11.7765 9.5,11.5 L9.5,5.707 L7.85,7.3535 C7.65,7.549 7.35,7.549 7.15,7.3535 C6.95,7.1585 6.95,6.8415 7.15,6.6465 L9.65,4.1465 C9.75,4.0525 9.85,4 10,4 C10.15,4 10.25,4.0525 10.35,4.1465 L12.85,6.6465 C13.05,6.8415 13.05,7.1585 12.85,7.3535 C12.65,7.549 12.35,7.549 12.15,7.3535 L10.5,5.707 L10.5,11.5 Z M5,11 C5,10.724 4.8,10.5 4.5,10.5 C4.2,10.5 4,10.724 4,11 L4,14.5 C4,15.3285 4.65,16 5.5,16 L14.5,16 C15.35,16 16,15.3285 16,14.5 L16,11 C16,10.724 15.8,10.5 15.5,10.5 C15.2,10.5 15,10.724 15,11 L15,14.5 C15,14.776 14.8,15 14.5,15 L5.5,15 C5.2,15 5,14.776 5,14.5 L5,11 Z" id="导出"></path>
            </g>
        </g>
    </g>
</svg>