<?xml version="1.0" encoding="UTF-8"?>
<svg  viewBox="0 0 20 20" version="1.1" xmlns="http://www.w3.org/2000/svg" xmlns:xlink="http://www.w3.org/1999/xlink">
    <!-- Generator: Sketch 57.1 (83088) - https://sketch.com -->
    <title>工厂数据化</title>
    <desc>Created with Sketch.</desc>
    <g id="组件库" stroke="none" stroke-width="1"  fill-rule="evenodd">
        <g id="图标Iconography" transform="translate(-102.000000, -215.000000)"  fill-rule="nonzero">
            <g id="编组-10" transform="translate(102.000000, 215.000000)">
                <path d="M14.4,4.4 L15.2,4.4 C15.4,4.4 15.6,4.2 15.6,4 L15.6,2.4 C15.6,2.2 15.4,2 15.2,2 L2.4,2 C2.2,2 2,2.2 2,2.4 L2,3.2 C2,3.4 2.2,3.6 2.4,3.6 L13.6,3.6 C13.8,3.6 14,3.8 14,4 C14,4.2 14.2,4.4 14.4,4.4 L14.4,4.4 Z M11.6,5.6 L11.6,8.9 C11.6,9.2 11.3,9.4 11,9.3 L7.4,7.5 C7.1,7.4 6.8,7.6 6.8,7.9 L6.8,9 C6.8,9.3 6.5,9.5 6.2,9.4 L2.6,7.6 C2.3,7.3 2,7.5 2,7.8 L2,17.6 C2,17.8 2.2,18 2.4,18 L17.6,18 C17.8,18 18,17.8 18,17.6 L18,5.6 C18,5.4 17.8,5.2 17.6,5.2 L12,5.2 C11.8,5.2 11.6,5.4 11.6,5.6 L11.6,5.6 Z M5.6,14 L4.8,14 C4.6,14 4.4,13.8 4.4,13.6 L4.4,12.8 C4.4,12.6 4.6,12.4 4.8,12.4 L5.6,12.4 C5.8,12.4 6,12.6 6,12.8 L6,13.6 C6,13.8 5.8,14 5.6,14 Z M10.4,14 L9.6,14 C9.4,14 9.2,13.8 9.2,13.6 L9.2,12.8 C9.2,12.6 9.4,12.4 9.6,12.4 L10.4,12.4 C10.6,12.4 10.8,12.6 10.8,12.8 L10.8,13.6 C10.8,13.8 10.6,14 10.4,14 Z M15.2,14 L14.4,14 C14.2,14 14,13.8 14,13.6 L14,12.8 C14,12.6 14.2,12.4 14.4,12.4 L15.2,12.4 C15.4,12.4 15.6,12.6 15.6,12.8 L15.6,13.6 C15.6,13.8 15.4,14 15.2,14 Z M15.2,10 L14.4,10 C14.2,10 14,9.8 14,9.6 L14,8.8 C14,8.6 14.2,8.4 14.4,8.4 L15.2,8.4 C15.4,8.4 15.6,8.6 15.6,8.8 L15.6,9.6 C15.6,9.8 15.4,10 15.2,10 Z" id="工厂数据化"></path>
            </g>
        </g>
    </g>
</svg>
