<?xml version="1.0" encoding="UTF-8"?>
<svg viewBox="0 0 20 20" version="1.1" xmlns="http://www.w3.org/2000/svg" xmlns:xlink="http://www.w3.org/1999/xlink">
    <!-- Generator: Sketch 57.1 (83088) - https://sketch.com -->
    <title>打开</title>
    <desc>Created with Sketch.</desc>
    <g id="组件库" stroke="none" stroke-width="1"  fill-rule="evenodd">
        <g id="图标Iconography" transform="translate(-102.000000, -578.000000)"  fill-rule="nonzero">
            <g id="编组-19" transform="translate(102.000000, 578.000000)">
                <g id="打开" transform="translate(2.000000, 4.000000)">
                    <path d="M5.72135718,0.5 L7.79508765,2.5 L13.5,2.5 L13.5,5 L12.5,5 L12.5,3.5 L7.39143579,3.5 L5.31770532,1.5 L1.5,1.5 L1.5,10.5 L12,10.5 L12,11 L13.5,11 L13.5,11.5 L0.5,11.5 L0.5,0.5 L5.72135718,0.5 Z" id="形状结合"></path>
                    <path d="M2.52565835,4.84188612 C2.59371537,4.63771505 2.7847848,4.5 3,4.5 L15,4.5 C15.3412789,4.5 15.5822635,4.83434833 15.4743416,5.15811388 L13.4743416,11.1581139 C13.4062846,11.362285 13.2152152,11.5 13,11.5 L1,11.5 C0.658721137,11.5 0.417736499,11.1656517 0.525658351,10.8418861 L2.52565835,4.84188612 Z M3.36037961,5.5 L1.69371294,10.5 L12.6396204,10.5 L14.3062871,5.5 L3.36037961,5.5 Z" id="矩形"></path>
                </g>
            </g>
        </g>
    </g>
</svg>
