<?xml version="1.0" encoding="UTF-8"?>
<svg viewBox="0 0 20 20" version="1.1" xmlns="http://www.w3.org/2000/svg" xmlns:xlink="http://www.w3.org/1999/xlink">
    <!-- Generator: Sketch 57.1 (83088) - https://sketch.com -->
    <title>Home-icon</title>
    <desc>Created with Sketch.</desc>
    <g id="组件库" stroke="none" stroke-width="1"  fill-rule="evenodd">
        <g id="图标Iconography" transform="translate(-294.000000, -366.000000)" fill-rule="nonzero">
            <g id="Home-icon-2" transform="translate(294.000000, 366.000000)">
                <path d="M11,3.06300006 L17,8.03600006 C16.856,8.03600006 17,8.32600006 17,9.03600006 L17,15.9990001 C17,16.5512848 16.5522847,16.9990001 16,16.9990001 L13,16.9990001 C12.4986547,16.8919918 12.1070083,16.5003453 12,15.9990001 L12,13.0150001 C12.16,12.0430001 11.706,11.5950001 11,12.0200001 L9,12.0200001 C8.276,11.5950001 7.822,12.0430001 8,13.0150001 L8,15.9990001 C7.88189514,16.4942285 7.49522847,16.8808952 7,16.9990001 L4,16.9990001 C3.44771525,16.9990001 3,16.5512848 3,15.9990001 L3,9.03600006 C3,8.33100006 3.144,8.03600006 3,8.03600006 L9,3.06300006 C9.66402066,2.97899998 10.3359793,2.97899998 11,3.06300006" id="Home-icon"></path>
            </g>
        </g>
    </g>
</svg>
