<?xml version="1.0" encoding="UTF-8"?>
<svg width="20px" height="20px" viewBox="0 0 20 20" version="1.1" xmlns="http://www.w3.org/2000/svg" xmlns:xlink="http://www.w3.org/1999/xlink">
    <!-- Generator: Sketch 57.1 (83088) - https://sketch.com -->
    <title>导入</title>
    <desc>Created with Sketch.</desc>
    <g id="组件库" stroke="none" stroke-width="1" fill="none" fill-rule="evenodd">
        <g id="图标Iconography" transform="translate(-102.000000, -698.000000)" fill="#969CA6">
            <g id="导入-2" transform="translate(102.000000, 698.000000)">
                <path d="M10.5,4.5 C10.5,4.224 10.3,4 10,4 C9.7,4 9.5,4.224 9.5,4.5 L9.5,10.293 L7.85,8.6465 C7.65,8.4515 7.35,8.4515 7.15,8.6465 C6.95,8.842 6.95,9.1585 7.15,9.354 L9.65,11.854 C9.75,11.9475 9.85,12 10,12 C10.15,12 10.25,11.9475 10.35,11.854 L12.85,9.354 C13.05,9.1585 13.05,8.842 12.85,8.6465 C12.65,8.4515 12.35,8.4515 12.15,8.6465 L10.5,10.293 L10.5,4.5 Z M5,11 C5,10.724 4.8,10.5 4.5,10.5 C4.2,10.5 4,10.724 4,11 L4,14.5 C4,15.3285 4.65,16 5.5,16 L14.5,16 C15.35,16 16,15.3285 16,14.5 L16,11 C16,10.724 15.8,10.5 15.5,10.5 C15.2,10.5 15,10.724 15,11 L15,14.5 C15,14.776 14.8,15 14.5,15 L5.5,15 C5.2,15 5,14.776 5,14.5 L5,11 Z" id="导入"></path>
            </g>
        </g>
    </g>
</svg>