<?xml version="1.0" encoding="UTF-8"?>
<svg  viewBox="0 0 22 22" version="1.1" xmlns="http://www.w3.org/2000/svg" xmlns:xlink="http://www.w3.org/1999/xlink">
    <!-- Generator: Sketch 57.1 (83088) - https://sketch.com -->
    <title>键盘</title>
    <desc>Created with Sketch.</desc>
    <g id="组件库" stroke="none" stroke-width="1"  fill-rule="evenodd">
        <g id="图标Iconography" transform="translate(-484.000000, -364.000000)" fill="#354052" fill-rule="nonzero">
            <g id="键盘-2" transform="translate(484.000000, 364.000000)">
                <path d="M10.9750684,0 C17.0354964,0 21.9501368,4.91518057 21.9501368,10.9750684 C21.9501368,17.0349562 16.9872179,21.9501368 10.9750684,21.9501368 C4.91464039,21.9501368 0,17.0349562 0,10.9750684 C0,4.91518057 4.91464039,0 10.9750684,0 Z M15.1823734,14.230287 L6.6799978,14.230287 C6.49321565,14.230287 6.33752398,14.3626315 6.30151953,14.5390901 L6.29367514,14.6171589 L6.29367514,15.0034815 C6.29393904,15.190062 6.42626165,15.3456736 6.60218872,15.3818636 L6.6799978,15.3898042 L15.1823734,15.3898042 C15.3691419,15.3898042 15.5250333,15.2574493 15.5612915,15.0813666 L15.5692475,15.0034838 L15.5692475,14.6171589 C15.5692475,14.4036931 15.3958385,14.230287 15.1823734,14.230287 Z M15.9555656,10.3654109 L15.1823711,10.3654109 C14.995589,10.3654109 14.8398973,10.4977553 14.8038929,10.674214 L14.7960485,10.7522827 L14.7960485,12.2981203 C14.7963124,12.4847008 14.928635,12.6403123 15.1045621,12.6765024 L15.1823711,12.6844431 L15.9555634,12.6844431 C16.1421439,12.6841792 16.2977561,12.5518583 16.3339472,12.3759317 L16.3418883,12.2981227 L16.3418883,10.7522827 C16.3418883,10.538817 16.1690307,10.3654109 15.9555656,10.3654109 Z M12.8638972,10.3654109 L12.0907027,10.3654109 C11.9039206,10.3654109 11.7482289,10.4977553 11.7122245,10.674214 L11.7043801,10.7522827 L11.7043801,12.2981203 C11.704644,12.4845139 11.8367102,12.6400345 12.0124296,12.676407 L12.0901535,12.6844431 L12.863895,12.6844431 C13.0504755,12.6841792 13.2060877,12.5518583 13.2422788,12.3759317 L13.2502199,12.2981227 L13.2502199,10.7522827 C13.2502199,10.538817 13.0768136,10.3654109 12.8638972,10.3654109 Z M9.77221086,10.3654176 L8.99956554,10.3654176 C8.812783,10.3654176 8.65667115,10.4977621 8.62056167,10.6742207 L8.6126937,10.7522895 L8.6126937,12.2981271 C8.61295957,12.4848948 8.74553712,12.6405974 8.92167143,12.6766048 L8.99956554,12.6844499 L9.77220861,12.6844499 C9.95878909,12.684186 10.1144013,12.5518651 10.1505924,12.3759384 L10.1585335,12.2981294 L10.1585335,10.7522895 C10.1585335,10.5388237 9.98567595,10.3654176 9.77221086,10.3654176 Z M6.67999102,10.3654176 L5.9073457,10.3654176 C5.72008301,10.3654176 5.56433127,10.4977621 5.52831932,10.6742207 L5.52047386,10.7522895 L5.52047386,12.2981271 C5.52073973,12.4848948 5.65331728,12.6405973 5.82945159,12.6766047 L5.9073457,12.6844497 L6.67999102,12.6844497 C6.8666812,12.6844497 7.02244185,12.5520252 7.05846498,12.3759845 L7.06631368,12.2981271 L7.06631368,10.7522895 C7.06631368,10.5388237 6.89345611,10.3654176 6.67999102,10.3654176 Z M15.9555656,6.8874221 L15.1823711,6.8874221 C14.995589,6.8874221 14.8398973,7.01976617 14.8038929,7.19585712 L14.7960485,7.27374475 L14.7960485,8.81958232 C14.7960485,9.00635069 14.9284051,9.16224137 15.1044882,9.19849887 L15.1823711,9.20645455 L15.9555656,9.20645455 C16.1423332,9.20618869 16.2980358,9.07361114 16.3340432,8.89747683 L16.3418883,8.81958271 L16.3418883,7.27374475 C16.3418883,7.06027944 16.1690307,6.8874221 15.9555656,6.8874221 Z M12.8638973,6.8874221 L12.0907027,6.8874221 C11.9039206,6.8874221 11.7482289,7.01976617 11.7122245,7.19585712 L11.7043801,7.27374475 L11.7043801,8.81958232 C11.7043801,9.0061636 11.8364803,9.16196325 12.0123558,9.19840335 L12.0901536,9.20645455 L12.8638973,9.20645455 C13.0506646,9.20618869 13.2063674,9.07361114 13.2423748,8.89747683 L13.2502199,8.81958271 L13.2502199,7.27374475 C13.2502199,7.06027944 13.0768136,6.8874221 12.8638973,6.8874221 Z M9.77221083,6.88742885 L8.99956551,6.88742885 C8.81278297,6.88742885 8.65667112,7.01977292 8.62056164,7.19586388 L8.61269367,7.27375151 L8.61269367,8.81958908 L8.62055354,8.89755732 C8.65147446,9.04866401 8.77049098,9.16768053 8.92159742,9.19860144 L8.99956551,9.20646131 L9.77221083,9.20646131 C9.95897821,9.20619544 10.114681,9.07361789 10.1506884,8.89748358 L10.1585335,8.81958947 L10.1585335,7.27375151 C10.1585335,7.06028619 9.98567592,6.88742885 9.77221083,6.88742885 Z M6.67999104,6.88742883 L5.90734572,6.88742883 C5.69333122,6.88742883 5.52047388,7.06028639 5.52047388,7.27375148 L5.52047388,7.27375148 L5.52047388,8.81958905 L5.52047388,8.81958905 L5.52833375,8.89755736 C5.56440815,9.07384853 5.72039046,9.20646092 5.90734572,9.20646092 L5.90734572,9.20646092 L6.6802679,9.20646092 L6.6802679,9.20646092 L6.75838836,9.19850096 C6.93437692,9.16222641 7.06657951,9.00627764 7.0663141,8.81958785 L7.0663141,8.81958785 L7.0663141,7.27375148 C7.0663141,7.06028617 6.89345613,6.88742883 6.67999104,6.88742883 L6.67999104,6.88742883 Z" id="键盘"></path>
            </g>
        </g>
    </g>
</svg>
