<?xml version="1.0" encoding="UTF-8"?>
<svg  viewBox="0 0 20 20" version="1.1" xmlns="http://www.w3.org/2000/svg" xmlns:xlink="http://www.w3.org/1999/xlink">
    <!-- Generator: Sketch 57.1 (83088) - https://sketch.com -->
    <title>隐藏标签</title>
    <desc>Created with Sketch.</desc>
    <g id="组件库" stroke="none" stroke-width="1"  fill-rule="evenodd">
        <g id="图标Iconography" transform="translate(-966.000000, -655.000000)"  fill-rule="nonzero">
            <g id="标签" transform="translate(966.000000, 655.000000)">
                <path d="M14.5000858,3 C15.3284889,3 16,3.67151115 16,4.49991419 L16,15.2174858 C16,16.0458889 15.3284889,16.7174 14.5000858,16.7174 C14.2070722,16.7174 13.9204097,16.6315729 13.6756308,16.4705613 L10,14.0526406 L6.32436918,16.470733 C5.63225955,16.9261315 4.70206559,16.7340505 4.24683872,16.0421125 C4.0858149,15.7972941 4,15.5106832 4,15.2176575 L4,4.50008583 C4,3.67168278 4.67151113,3 5.50008583,3 L14.5000858,3 Z M14.5000858,4 L5.50008584,4 C5.22387286,4 5,4.22389055 5,4.50008583 L5,15.2176575 C5,15.3153644 5.02861638,15.4109434 5.08225328,15.4924922 C5.23397845,15.7231121 5.54406586,15.7871046 5.7747663,15.6353069 L9.99998049,12.8556594 L14.2251828,15.6351018 C14.3067765,15.6887728 14.4023925,15.7174 14.5000858,15.7174 C14.7762041,15.7174 15,15.4936041 15,15.2174858 L15,4.49991419 C15,4.22379589 14.7762041,4 14.5000858,4 Z M8.58578644,6.37867966 L9.99923305,7.79223305 L11.4142136,6.37867966 C11.5877799,6.2051133 11.8572043,6.18582815 12.0520725,6.32082421 L12.1213203,6.37867966 C12.2948867,6.55224601 12.3141718,6.82167041 12.1791758,7.01653855 L12.1213203,7.08578644 L10.707233,8.49923305 L12.1213203,9.91421356 C12.3165825,10.1094757 12.3165825,10.4260582 12.1213203,10.6213203 C11.9260582,10.8165825 11.6094757,10.8165825 11.4142136,10.6213203 L9.99923305,9.20723305 L8.58578644,10.6213203 C8.41222009,10.7948867 8.14279568,10.8141718 7.94792754,10.6791758 L7.87867966,10.6213203 C7.7051133,10.447754 7.68582815,10.1783296 7.82082421,9.98346145 L7.87867966,9.91421356 L9.29223305,8.49923305 L7.87867966,7.08578644 C7.68341751,6.89052429 7.68341751,6.5739418 7.87867966,6.37867966 C8.0739418,6.18341751 8.39052429,6.18341751 8.58578644,6.37867966 Z" id="隐藏标签"></path>
            </g>
        </g>
    </g>
</svg>
