<?xml version="1.0" encoding="UTF-8"?>
<svg  viewBox="0 0 20 20" version="1.1" xmlns="http://www.w3.org/2000/svg" xmlns:xlink="http://www.w3.org/1999/xlink">
    <!-- Generator: Sketch 57.1 (83088) - https://sketch.com -->
    <title>link_off</title>
    <desc>Created with Sketch.</desc>
    <g id="组件库" stroke="none" stroke-width="1"  fill-rule="evenodd">
        <g id="图标Iconography" transform="translate(-391.000000, -943.000000)" >
            <g id="link_off-2" transform="translate(391.000000, 943.000000)">
                <path d="M17.9527536,9.37148688 C17.6566846,7.39502564 15.8562644,5.98669699 13.8557976,5.98669699 L11.5592616,5.98669699 C11.1431645,5.98669699 10.7990842,6.33077729 10.7990842,6.74687439 C10.7990842,7.16297149 11.1431645,7.50705179 11.5592616,7.50705179 L13.8798032,7.50705179 C15.1601019,7.50705179 16.3123708,8.41926466 16.4564044,9.69156157 C16.5924362,10.8358286 15.9442849,11.8440639 14.976059,12.2681629 L16.0963204,13.3884243 C17.4006248,12.5722338 18.2088134,11.0598809 17.9527536,9.37148688 L17.9527536,9.37148688 Z M3.69342602,3.23405462 C3.38135319,2.92198179 2.87723555,2.92198179 2.56516272,3.23405462 C2.2530899,3.54612745 2.2530899,4.05024509 2.56516272,4.36231792 L4.48561089,6.28276608 C2.93324862,6.92291547 1.86900026,8.49928334 2.01303388,10.3157072 C2.18107309,12.4282002 4.06951379,13.9885643 6.18200677,13.9885643 L8.43853336,13.9885643 C8.85463046,13.9885643 9.19871076,13.644484 9.19871076,13.2283869 C9.19871076,12.8122898 8.85463046,12.4682095 8.43853336,12.4682095 L6.1259937,12.4682095 C4.82168932,12.4682095 3.64541482,11.5159873 3.52538681,10.211683 C3.4053588,8.83536177 4.41359408,7.675091 5.72590033,7.53105739 L7.40629247,9.21144953 C7.06221218,9.28346634 6.79815055,9.57953543 6.79815055,9.94762133 L6.79815055,10.02764 C6.79815055,10.4437371 7.14223085,10.7878174 7.55832795,10.7878174 L8.98266034,10.7878174 L10.7990842,12.6042413 L10.7990842,13.9885643 L12.1834073,13.9885643 L14.8240235,16.6291806 C15.1360963,16.9412534 15.640214,16.9412534 15.9522868,16.6291806 C16.2643596,16.3171077 16.2643596,15.8129901 15.9522868,15.5009173 L3.69342602,3.23405462 Z M13.1996444,9.94762133 C13.1996444,9.53152423 12.8555641,9.18744393 12.439467,9.18744393 L11.9113438,9.18744393 L13.103622,10.3797222 C13.1596351,10.2756979 13.1996444,10.1556699 13.1996444,10.02764 L13.1996444,9.94762133 L13.1996444,9.94762133 Z" id="link_off"></path>
            </g>
        </g>
    </g>
</svg>
