<?xml version="1.0" standalone="no"?><!DOCTYPE svg PUBLIC "-//W3C//DTD SVG 1.1//EN" "http://www.w3.org/Graphics/SVG/1.1/DTD/svg11.dtd"><svg t="1597039302839" class="icon" viewBox="0 0 1024 1024" version="1.1" xmlns="http://www.w3.org/2000/svg" p-id="1606" xmlns:xlink="http://www.w3.org/1999/xlink" width="200" height="200"><defs><style type="text/css"></style></defs><path d="M896 320a64 64 0 0 1 64 64v512a64 64 0 0 1-64 64H128a64 64 0 0 1-64-64V384a64 64 0 0 1 64-64h768z m0 64H128v512h768V384zM608 448a64 64 0 0 1 63.424 72.448l91.264 87.808L768 608a64 64 0 0 1 63.552 56.512L832 672a64 64 0 1 1-122.496-26.048l-77.44-74.624A63.808 63.808 0 0 1 608 576l5.952-0.384-108.928 163.328a64 64 0 1 1-116.16 4.48l-83.2-105.92a64 64 0 1 1 44.672-46.912l89.408 113.92a64.64 64.64 0 0 1 11.648-0.448l103.936-155.712A64 64 0 0 1 608 448z m256-256a32 32 0 1 1 0 64h-704a32 32 0 0 1 0-64h704z m-128-128a32 32 0 1 1 0 64h-448a32 32 0 0 1 0-64h448z" p-id="1607"></path></svg>
