<?xml version="1.0" standalone="no"?><!DOCTYPE svg PUBLIC "-//W3C//DTD SVG 1.1//EN" "http://www.w3.org/Graphics/SVG/1.1/DTD/svg11.dtd"><svg t="1597039271100" class="icon" viewBox="0 0 1024 1024" version="1.1" xmlns="http://www.w3.org/2000/svg" p-id="981" xmlns:xlink="http://www.w3.org/1999/xlink" width="200" height="200"><defs><style type="text/css"></style></defs><path d="M430.4 51.2c36.16 0 71.232 14.272 96.96 39.872l409.28 409.408c25.856 25.728 40.192 60.224 40.192 96.768 0 36.48-14.272 70.912-40.128 96.768l-242.56 242.496a135.936 135.936 0 0 1-96.704 40.064 135.744 135.744 0 0 1-96.768-40.064L91.2 527.168a136.704 136.704 0 0 1-36.48-127.488l45.44-197.12a136.96 136.96 0 0 1 102.592-102.4L400.128 54.4C409.984 52.288 420.096 51.2 430.4 51.2z m0 64c-5.632 0-11.136 0.64-16.128 1.728l-197.248 45.568c-26.752 6.08-48.32 27.584-54.464 54.4l-45.44 197.12c-5.696 24.768 1.536 49.984 19.392 67.968l409.472 409.344c13.696 13.76 31.872 21.248 51.456 21.248 19.584 0 37.76-7.488 51.456-21.312l242.56-242.56c13.824-13.824 21.376-32 21.376-51.456 0-19.52-7.552-37.696-21.376-51.456L482.176 136.32a73.728 73.728 0 0 0-51.776-21.184zM339.648 228.16a111.104 111.104 0 0 1 111.36 111.36c0 29.632-11.648 57.792-32.576 78.72-21.12 20.992-49.088 32.64-78.72 32.64a111.488 111.488 0 0 1-78.72-190.208 111.36 111.36 0 0 1 78.72-32.512z m0 64a47.232 47.232 0 0 0-33.472 80.832c8.96 8.96 20.8 13.888 33.472 13.888a46.976 46.976 0 0 0 33.536-13.888 46.976 46.976 0 0 0 13.824-33.472c0-12.8-4.864-24.576-13.504-33.28a47.488 47.488 0 0 0-33.856-14.08z" p-id="982"></path></svg>
