<?xml version="1.0" standalone="no"?><!DOCTYPE svg PUBLIC "-//W3C//DTD SVG 1.1//EN" "http://www.w3.org/Graphics/SVG/1.1/DTD/svg11.dtd"><svg t="1597039299030" class="icon" viewBox="0 0 1024 1024" version="1.1" xmlns="http://www.w3.org/2000/svg" p-id="1481" xmlns:xlink="http://www.w3.org/1999/xlink" width="200" height="200"><defs><style type="text/css"></style></defs><path d="M96 128h170.048a32 32 0 0 1 5.76 63.488L265.984 192H128v632h111.168a32 32 0 0 1 5.76 63.488l-5.76 0.512H96a32 32 0 0 1-31.488-26.24L64 856V160a32 32 0 0 1 26.24-31.488L96 128h170.048z m822.848 0a32 32 0 0 1 32 32v696a32 32 0 0 1-32 32h-143.232a32 32 0 1 1 0-64h111.232V192H748.8a32 32 0 1 1 0-64h170.048zM512 256l256 256-256 256-256-256 256-256z m0 90.496L346.496 512 512 677.504 677.504 512 512 346.496z" p-id="1482"></path></svg>
