<?xml version="1.0" standalone="no"?><!DOCTYPE svg PUBLIC "-//W3C//DTD SVG 1.1//EN" "http://www.w3.org/Graphics/SVG/1.1/DTD/svg11.dtd"><svg t="1597039290789" class="icon" viewBox="0 0 1024 1024" version="1.1" xmlns="http://www.w3.org/2000/svg" p-id="1231" xmlns:xlink="http://www.w3.org/1999/xlink" width="200" height="200"><defs><style type="text/css"></style></defs><path d="M128.47808 672a64 64 0 1 0 0 128 64 64 0 0 0 0-128z m512-64a64 64 0 1 0 0 128 64 64 0 0 0 0-128z m-434.048 26.432l1.664 1.344 6.976 5.952a128.64 128.64 0 0 0-8.64-7.296z m-26.24-15.552l-0.896-0.384 0.96 0.384z m-12.032-4.608l2.304 0.768a127.36 127.36 0 0 0-2.304-0.768z m363.392-9.472l-0.384 0.448 0.32-0.448z m5.76-8.512l-0.64 0.832 0.64-0.832z m197.504-10.752l0.128 0.128-0.064-0.128-0.32-0.32 0.256 0.32z m-5.952-6.08l5.952 6.08-0.256-0.32-0.064-0.064-3.328-3.52-2.304-2.176z m-467.456-49.92l1.024 0.576a127.616 127.616 0 0 1-1.024-0.512z m-9.344-5.376l0.832 0.576a128.128 128.128 0 0 1-0.832-0.576z m151.872-11.072l-3.584 2.816 1.664-1.28 1.92-1.536z m7.296-6.848z m-185.664-4.416l0.704 0.832 2.368 2.56-3.072-3.392zM224.47808 500.672l1.088 1.152-2.816-3.264 1.728 2.112z m194.24-2.624a128.64 128.64 0 0 1-0.96 1.152l0.96-1.152z m-197.696-1.536l0.064 0.128 0.512 0.576-0.576-0.704zM320.47808 352a64 64 0 1 0 0 128 64 64 0 0 0 0-128z m509.952 45.696l1.92 1.152-1.92-1.152z m-9.024-6.016l1.92 1.344a128.384 128.384 0 0 1-1.92-1.28z m-7.296-5.696l0.64 0.576a128.448 128.448 0 0 1-0.64-0.576zM896.47808 224a64 64 0 1 0 0 128 64 64 0 0 0 0-128zM396.12608 519.168l0.384-0.192 3.136-2.368 0.704-0.704-4.224 3.264z m0 0a127.616 127.616 0 0 1-125.312 14.848l1.6 0.64-57.344 107.072 3.904 3.776a128 128 0 1 1-57.344-33.152l-3.008-0.768 61.888-115.584 0.512 0.512-5.952-7.872a128 128 0 1 1 221.504-18.688l-0.448 0.896 122.496 102.72c21.888-18.304 50.56-29.568 81.856-29.568 15.104 0 29.568 2.56 43.008 7.424l-1.536-0.576 117.568-179.328-5.248-6.464a128 128 0 1 1 65.28 45.568l-7.552-2.56-116.608 178.048-0.448-0.448-0.64-0.768a128 128 0 1 1-215.552 47.488l3.328-9.216-0.96 2.56-125.952-105.792 0.96-0.768z" p-id="1232"></path></svg>
