<?xml version="1.0" standalone="no"?><!DOCTYPE svg PUBLIC "-//W3C//DTD SVG 1.1//EN" "http://www.w3.org/Graphics/SVG/1.1/DTD/svg11.dtd"><svg t="1597039286414" class="icon" viewBox="0 0 1024 1024" version="1.1" xmlns="http://www.w3.org/2000/svg" p-id="1106" xmlns:xlink="http://www.w3.org/1999/xlink" width="200" height="200"><defs><style type="text/css"></style></defs><path d="M512 32A160 160 0 0 1 672 192v-0.128l14.848 6.528a416.128 416.128 0 0 1 240.704 358.784l5.504 2.432a160 160 0 0 1-115.84 297.472l1.152 0.32-2.56 2.752A414.848 414.848 0 0 1 512 992c-121.28 0-230.4-51.84-306.432-134.656l-4.672 1.408A160.256 160.256 0 0 1 0 704a160 160 0 0 1 97.28-147.2l-0.832 0.32a416.128 416.128 0 0 1 255.488-365.248L352 192l0.256 8.704v0.512l-0.128-4.032L352 192A160 160 0 0 1 501.504 32.32L512 32z m146.624 223.936l-2.24 5.12a160 160 0 0 1-287.04 3.52l-4.096-8.704-13.824 6.784A352.192 352.192 0 0 0 161.408 544l9.088 0.256a160 160 0 0 1 92.352 282.24l1.088-0.896A350.464 350.464 0 0 0 512 928c96.832 0 184.512-39.04 248.128-102.336l0.64 0.64A160 160 0 0 1 864 544h-1.408a352.256 352.256 0 0 0-203.968-288.128z m146.304 596.8l0.64 0.256a158.912 158.912 0 0 1-0.64-0.256z m-13.376-6.016l1.728 0.832a159.04 159.04 0 0 1-1.728-0.832z m-11.52-6.464l1.536 0.896a159.168 159.168 0 0 1-1.536-0.96z m-526.528-6.464l-0.64 0.512-1.088 0.768 1.728-1.28zM160 608a96 96 0 1 0 0 192 96 96 0 0 0 0-192z m704 0a96 96 0 1 0 0 192 96 96 0 0 0 0-192z m51.456-55.488l0.832 0.256 11.264 4.48a156.8 156.8 0 0 0-12.096-4.736zM122.56 548.352l-1.856 0.512 1.216-0.32 0.64-0.192z m0.512-0.064l-0.512 0.064 0.512-0.064z m765.376-2.432l3.2 0.512a212.672 212.672 0 0 0-3.2-0.512z m-752.896 0l-2.048 0.32 2.048-0.32z m740.352-1.408l4.992 0.448a164.352 164.352 0 0 0-4.992-0.448zM149.568 544.32l-1.472 0.128-4.992 0.448 6.464-0.576zM160 544l-8.512 0.192-1.92 0.128L160 544z m352-448a96 96 0 1 0 0 192 96 96 0 0 0 0-192zM352.32 202.496l0.128 1.216 0.128 1.728-0.256-2.944z" p-id="1107"></path></svg>
