<?xml version="1.0" encoding="UTF-8"?>
<svg viewBox="0 0 20 20" version="1.1" xmlns="http://www.w3.org/2000/svg" xmlns:xlink="http://www.w3.org/1999/xlink">
    <!-- Generator: Sketch 57.1 (83088) - https://sketch.com -->
    <title>形状结合</title>
    <desc>Created with Sketch.</desc>
    <g id="组件库" stroke="none" stroke-width="1"  fill-rule="evenodd">
        <g id="图标Iconography" transform="translate(-391.000000, -861.000000)" >
            <g id="Icon" transform="translate(391.000000, 861.000000)">
                <path d="M11.0409091,1.09799678 L11.1954545,1.16199467 L18.15,4.58853006 C18.6458333,4.8230868 18.946875,5.27897773 18.9936053,5.79099269 L19,5.93190051 L19,14.1305995 C19,14.6514534 18.7402778,15.1312025 18.280353,15.4046364 L18.15,15.4739699 L11.1954545,18.9005053 C10.7833333,19.092499 10.3712121,19.1138316 9.95909091,18.9645032 L9.80454545,18.9005053 L2.85,15.4739699 C2.35416667,15.2394132 2.053125,14.7835223 2.00639468,14.2715073 L2,14.1305995 L2,5.93190051 C2,5.41104656 2.25972222,4.93129753 2.71964699,4.65786358 L2.85,4.58853006 L9.80454545,1.16199467 C10.2166667,0.970000987 10.6287879,0.948668355 11.0409091,1.09799678 Z M3,6.5 L3,14.454669 L10,17.8870191 L10,9.55275469 L3,6.5 Z M18,6.5 L11,9.55275469 L11,17.8870191 L18,14.454669 L18,6.5 Z M10.4904785,1.95654297 L3.328125,5.40942383 L10.4904785,8.41442871 L17.4504395,5.40942383 L10.4904785,1.95654297 Z" id="形状结合"></path>
            </g>
        </g>
    </g>
</svg>
