<?xml version="1.0" encoding="UTF-8"?>
<svg  viewBox="0 0 13 18" version="1.1" xmlns="http://www.w3.org/2000/svg" xmlns:xlink="http://www.w3.org/1999/xlink">
    <!-- Generator: Sketch 57.1 (83088) - https://sketch.com -->
    <title>mouse</title>
    <desc>Created with Sketch.</desc>
    <g id="B-数据开发--一期(改)" stroke="none" stroke-width="1"  fill-rule="evenodd">
        <g id="b2.2.1-映射配置" transform="translate(-687.000000, -339.000000)" fill="#354052" fill-rule="nonzero">
            <g id="数据源" transform="translate(638.000000, 110.000000)">
                <g id="Tooltip-White-Large" transform="translate(31.000000, 210.000000)">
                    <g id="鼠标" transform="translate(18.000000, 19.000000)">
                        <path d="M6.25766331,0.0175781455 C2.97582356,0.0175781455 0.314492335,2.67715155 0.314492335,5.95899131 L0.314492335,12.0005999 C0.314492335,15.3105647 2.97582356,17.9912319 6.25766331,17.9912319 C9.54126088,17.9912319 12.2008343,15.3088069 12.2008343,12.0005999 L12.2008343,6.00821012 C12.2008343,2.69824533 9.53950307,0.0175781455 6.25766331,0.0175781455 Z M5.82348312,0.907032305 L5.82348312,5.81485052 L5.84809252,5.81485052 C5.83227219,5.86055369 5.82348312,5.9097725 5.82348312,5.95899131 C5.82348312,6.1998119 6.01860053,6.3931715 6.25766331,6.3931715 C6.49848391,6.3931715 6.69184351,6.19805409 6.69184351,5.95899131 C6.69184351,5.90801469 6.68305443,5.85879588 6.6672341,5.81485052 L6.69184351,5.81485052 L6.69184351,0.907032305 C9.29165122,1.13379038 11.3342317,3.37324611 11.3342317,6.10488992 L11.3342317,7.50586811 L1.18109491,7.50586811 L1.18109491,6.10488992 C1.18109491,3.37500393 3.22191759,1.13379038 5.82348312,0.907032305 Z M6.25766331,17.1211137 C3.45394911,17.1211137 1.18109491,14.786736 1.18109491,11.9039201 L1.18109491,8.10704068 L11.3342317,8.10704068 L11.3342317,11.9039201 C11.3342317,14.7849781 9.06137751,17.1211137 6.25766331,17.1211137 L6.25766331,17.1211137 Z" id="mouse"></path>
                    </g>
                </g>
            </g>
        </g>
    </g>
</svg>
