<?xml version="1.0" encoding="UTF-8"?>
<svg  viewBox="0 0 15 15" version="1.1" xmlns="http://www.w3.org/2000/svg" xmlns:xlink="http://www.w3.org/1999/xlink">
    <!-- Generator: Sketch 57.1 (83088) - https://sketch.com -->
    <title>top</title>
    <desc>Created with Sketch.</desc>
    <g id="B-数据开发--一期(改)" stroke="none" stroke-width="1"  fill-rule="evenodd" >
        <g id="b2.3.4-排序" transform="translate(-1425.000000, -208.000000)" >
            <path d="M1432.5,208 C1436.64214,208 1440,211.357864 1440,215.5 C1440,219.642136 1436.64214,223 1432.5,223 C1428.35786,223 1425,219.642136 1425,215.5 C1425,211.357864 1428.35786,208 1432.5,208 Z M1432.5,209 C1428.91015,209 1426,211.910149 1426,215.5 C1426,219.089851 1428.91015,222 1432.5,222 C1436.08985,222 1439,219.089851 1439,215.5 C1439,211.910149 1436.08985,209 1432.5,209 Z M1432.85298,212.147265 L1435.80298,215.126727 C1436.00161,215.319708 1436.00711,215.638126 1435.81527,215.837934 C1435.62343,216.037743 1435.3069,216.043277 1435.10827,215.850296 L1435.09598,215.837934 L1435.09598,215.837934 L1432.99998,213.717547 L1432.99998,220.071811 C1432.99998,220.349598 1432.77612,220.574787 1432.49998,220.574787 C1432.22383,220.574787 1431.99998,220.349597 1431.99998,220.071811 L1431.99998,213.717547 L1429.90398,215.837936 C1429.70875,216.034609 1429.39199,216.034834 1429.19648,215.838439 C1429.00097,215.642044 1429.00075,215.323399 1429.19598,215.126727 L1432.14598,212.147265 C1432.34123,211.950912 1432.65773,211.950912 1432.85298,212.147265 Z M1435.3,211 C1435.6866,211 1436,211.223858 1436,211.5 C1436,211.776143 1435.6866,212 1435.3,212 L1429.7,212 C1429.3134,212 1429,211.776142 1429,211.5 C1429,211.223857 1429.3134,211 1429.7,211 L1435.3,211 Z" id="top"></path>
        </g>
    </g>
</svg>
