<?xml version="1.0" encoding="UTF-8"?>
<svg  viewBox="0 0 15 15" version="1.1" xmlns="http://www.w3.org/2000/svg" xmlns:xlink="http://www.w3.org/1999/xlink">
    <!-- Generator: Sketch 57.1 (83088) - https://sketch.com -->
    <title>down</title>
    <desc>Created with Sketch.</desc>
    <g id="B-数据开发--一期(改)" stroke="none" stroke-width="1"  fill-rule="evenodd">
        <g id="b2.3.4-排序" transform="translate(-1475.000000, -208.000000)" >
            <path d="M1482.5,208 C1486.64214,208 1490,211.357864 1490,215.5 C1490,219.642136 1486.64214,223 1482.5,223 C1478.35786,223 1475,219.642136 1475,215.5 C1475,211.357864 1478.35786,208 1482.5,208 Z M1482.5,209 C1478.91015,209 1476,211.910149 1476,215.5 C1476,219.089851 1478.91015,222 1482.5,222 C1486.08985,222 1489,219.089851 1489,215.5 C1489,211.910149 1486.08985,209 1482.5,209 Z M1482.85298,211.147265 L1485.80298,214.126727 C1486.00161,214.319708 1486.00711,214.638126 1485.81527,214.837934 C1485.62343,215.037743 1485.3069,215.043277 1485.10827,214.850296 L1485.09598,214.837934 L1485.09598,214.837934 L1482.99998,212.717547 L1482.99998,219.071811 C1482.99998,219.349598 1482.77612,219.574787 1482.49998,219.574787 C1482.22383,219.574787 1481.99998,219.349597 1481.99998,219.071811 L1481.99998,212.717547 L1479.90398,214.837936 C1479.70875,215.034609 1479.39199,215.034834 1479.19648,214.838439 C1479.00097,214.642044 1479.00075,214.323399 1479.19598,214.126727 L1482.14598,211.147265 C1482.34123,210.950912 1482.65773,210.950912 1482.85298,211.147265 Z" id="down" transform="translate(1482.500000, 215.500000) scale(1, -1) translate(-1482.500000, -215.500000) "></path>
        </g>
    </g>
</svg>
