<?xml version="1.0" encoding="UTF-8"?>
<svg  viewBox="0 0 15 15" version="1.1" xmlns="http://www.w3.org/2000/svg" xmlns:xlink="http://www.w3.org/1999/xlink">
    <!-- Generator: Sketch 57.1 (83088) - https://sketch.com -->
    <title>up</title>
    <desc>Created with Sketch.</desc>
    <g id="B-数据开发--一期(改)" stroke="none" stroke-width="1"  fill-rule="evenodd">
        <g id="b2.3.4-排序" transform="translate(-1450.000000, -208.000000)" >
            <path d="M1457.5,208 C1461.64214,208 1465,211.357864 1465,215.5 C1465,219.642136 1461.64214,223 1457.5,223 C1453.35786,223 1450,219.642136 1450,215.5 C1450,211.357864 1453.35786,208 1457.5,208 Z M1457.5,209 C1453.91015,209 1451,211.910149 1451,215.5 C1451,219.089851 1453.91015,222 1457.5,222 C1461.08985,222 1464,219.089851 1464,215.5 C1464,211.910149 1461.08985,209 1457.5,209 Z M1457.85298,211.147265 L1460.80298,214.126727 C1461.00161,214.319708 1461.00711,214.638126 1460.81527,214.837934 C1460.62343,215.037743 1460.3069,215.043277 1460.10827,214.850296 L1460.09598,214.837934 L1460.09598,214.837934 L1457.99998,212.717547 L1457.99998,219.071811 C1457.99998,219.349598 1457.77612,219.574787 1457.49998,219.574787 C1457.22383,219.574787 1456.99998,219.349597 1456.99998,219.071811 L1456.99998,212.717547 L1454.90398,214.837936 C1454.70875,215.034609 1454.39199,215.034834 1454.19648,214.838439 C1454.00097,214.642044 1454.00075,214.323399 1454.19598,214.126727 L1457.14598,211.147265 C1457.34123,210.950912 1457.65773,210.950912 1457.85298,211.147265 Z" id="up"></path>
        </g>
    </g>
</svg>
