<?xml version="1.0" encoding="UTF-8"?>
<svg  viewBox="0 0 15 15" version="1.1" xmlns="http://www.w3.org/2000/svg" xmlns:xlink="http://www.w3.org/1999/xlink">
    <!-- Generator: Sketch 57.1 (83088) - https://sketch.com -->
    <title>bottom</title>
    <desc>Created with Sketch.</desc>
    <g id="B-数据开发--一期(改)" stroke="none" stroke-width="1"  fill-rule="evenodd">
        <g id="b2.3.4-排序" transform="translate(-1500.000000, -208.000000)">
            <path d="M1507.5,208 C1511.64214,208 1515,211.357864 1515,215.5 C1515,219.642136 1511.64214,223 1507.5,223 C1503.35786,223 1500,219.642136 1500,215.5 C1500,211.357864 1503.35786,208 1507.5,208 Z M1507.5,209 C1503.91015,209 1501,211.910149 1501,215.5 C1501,219.089851 1503.91015,222 1507.5,222 C1511.08985,222 1514,219.089851 1514,215.5 C1514,211.910149 1511.08985,209 1507.5,209 Z M1507.85298,212.147265 L1510.80298,215.126727 C1511.00161,215.319708 1511.00711,215.638126 1510.81527,215.837934 C1510.62343,216.037743 1510.3069,216.043277 1510.10827,215.850296 L1510.09598,215.837934 L1510.09598,215.837934 L1507.99998,213.717547 L1507.99998,220.071811 C1507.99998,220.349598 1507.77612,220.574787 1507.49998,220.574787 C1507.22383,220.574787 1506.99998,220.349597 1506.99998,220.071811 L1506.99998,213.717547 L1504.90398,215.837936 C1504.70875,216.034609 1504.39199,216.034834 1504.19648,215.838439 C1504.00097,215.642044 1504.00075,215.323399 1504.19598,215.126727 L1507.14598,212.147265 C1507.34123,211.950912 1507.65773,211.950912 1507.85298,212.147265 Z M1510.3,211 C1510.6866,211 1511,211.223858 1511,211.5 C1511,211.776143 1510.6866,212 1510.3,212 L1504.7,212 C1504.3134,212 1504,211.776142 1504,211.5 C1504,211.223857 1504.3134,211 1504.7,211 L1510.3,211 Z" id="bottom" transform="translate(1507.500000, 215.500000) scale(1, -1) translate(-1507.500000, -215.500000) "></path>
        </g>
    </g>
</svg>
