<?xml version="1.0" encoding="UTF-8"?>
<svg  viewBox="0 0 20 20" version="1.1" xmlns="http://www.w3.org/2000/svg" xmlns:xlink="http://www.w3.org/1999/xlink">
    <!-- Generator: Sketch 57.1 (83088) - https://sketch.com -->
    <title>形状</title>
    <desc>Created with Sketch.</desc>
    <g id="组件库" stroke="none" stroke-width="1"  fill-rule="evenodd">
        <g id="图标Iconography" transform="translate(-294.000000, -292.000000)"  fill-rule="nonzero">
            <g id="编组-16" transform="translate(294.000000, 292.000000)">
                <path d="M17,10 L14.2,6.73333333 L14.2,9.53333333 L12.3333333,9.53333333 L11.4,9.53333333 L10.4666667,9.53333333 L10.4666667,5.8 L9.53333333,5.8 L9.53333333,9.53333333 L5.8,9.53333333 L5.8,6.73333333 L3,10 L5.8,13.2666667 L5.8,10.4666667 L9.53333333,10.4666667 L9.53333333,11.4 L9.53333333,11.4 L9.53333333,14.2 L6.73333333,14.2 L10,17 L13.2666667,14.2 L10.4666667,14.2 L10.4666667,11.4 L10.4666667,11.4 L10.4666667,10.4666667 L11.4,10.4666667 L12.3333333,10.4666667 L14.2,10.4666667 L14.2,13.2666667 L17,10 Z M10,3 L6.73333333,5.8 L13.2666667,5.8 L10,3 Z" id="形状"></path>
            </g>
        </g>
    </g>
</svg>
