<?xml version="1.0" encoding="UTF-8"?>
<svg width="40px" height="40px" viewBox="0 0 40 40" version="1.1" xmlns="http://www.w3.org/2000/svg" xmlns:xlink="http://www.w3.org/1999/xlink">
    <!-- Generator: Sketch 57.1 (83088) - https://sketch.com -->
    <title>发布</title>
    <desc>Created with Sketch.</desc>
    <g id="组件库" stroke="none" stroke-width="1"  fill-rule="evenodd">
        <g id="图标Iconography" transform="translate(-764.000000, -933.000000)" fill="#0F71E2" fill-rule="nonzero">
            <g id="编组-6" transform="translate(764.000000, 933.000000)">
                <path d="M37.2286527,6.03547519 C37.5996632,5.93402578 37.9588013,6.05861626 38.1978787,6.30156287 C38.2293565,6.3334442 38.2593424,6.36839231 38.2872075,6.4058494 L38.2308812,6.33670257 C38.2442651,6.35163659 38.2572159,6.36696261 38.2697115,6.38265872 L38.2872075,6.4058494 C38.2903174,6.41002976 38.2933897,6.41422643 38.2964246,6.41843901 C38.4854027,6.67737253 38.5537863,7.02720602 38.4118073,7.37794546 L38.4398813,7.2995342 C38.434119,7.31812826 38.4278106,7.33657065 38.42096,7.35483513 L38.4118073,7.37794546 L28.2429101,32.4988088 C28.0341174,33.0146027 27.4444362,33.2607478 26.9308966,33.0464703 L26.9308966,33.0464703 L19.055,29.76 L14.7057972,33.8831511 C14.1641652,34.3965018 13.2869498,34.1534005 13.0669199,33.4677099 L13.0377844,33.3558107 L11.687,26.686 L1.61492146,22.4832301 C0.833493853,22.1571748 0.797571948,21.0880606 1.50291968,20.691924 L1.6204499,20.6351752 L37.0935586,6.08221554 C37.1135614,6.07369294 37.1337549,6.0658653 37.1541057,6.05872773 C37.1749026,6.05151148 37.195289,6.04497608 37.2156436,6.03912386 C37.2161459,6.0392265 37.2171533,6.03894634 37.218161,6.03866781 Z M13.916,27.616 L14.6398398,31.1900908 L17.036,28.918 L13.916,27.616 Z M35.219,9.934 L14.203,25.568 L26.7682826,30.8114985 L35.219,9.934 Z M30.509,10.945 L4.61562449,21.5681709 L12.056,24.673 L30.509,10.945 Z" id="发布"></path>
            </g>
        </g>
    </g>
</svg>
