<?xml version="1.0" encoding="UTF-8"?>
<svg  viewBox="0 0 20 20" version="1.1" xmlns="http://www.w3.org/2000/svg" xmlns:xlink="http://www.w3.org/1999/xlink">
    <!-- Generator: Sketch 57.1 (83088) - https://sketch.com -->
    <title>重做</title>
    <desc>Created with Sketch.</desc>
    <g id="组件库" stroke="none" stroke-width="1"  fill-rule="evenodd">
        <g id="图标Iconography" transform="translate(-391.000000, -655.000000)" >
            <g id="重做-2" transform="translate(391.000000, 655.000000)">
                <path d="M8.68198052,9.80330086 C8.87724266,9.998563 8.87724266,10.3151455 8.68198052,10.5104076 C8.48671837,10.7056698 8.17013588,10.7056698 7.97487373,10.5104076 L5.14644661,7.68198052 C4.95118446,7.48671837 4.95118446,7.17013588 5.14644661,6.97487373 L7.97487373,4.14644661 C8.17013588,3.95118446 8.48671837,3.95118446 8.68198052,4.14644661 C8.87724266,4.34170876 8.87724266,4.65829124 8.68198052,4.85355339 L6.735,6.8 L11.7105263,6.8 C14.0159035,6.8 15.8869991,8.70347313 15.9950692,11.0824584 L16,11.3 C16,13.7794169 14.0857634,15.8 11.7105263,15.8 L11.7105263,15.8 L6.5,15.8 C6.22385763,15.8 6,15.5761424 6,15.3 C6,15.0238576 6.22385763,14.8 6.5,14.8 L6.5,14.8 L11.7105263,14.8 C13.5210263,14.8 15,13.238861 15,11.3 C15,9.36113895 13.5210263,7.8 11.7105263,7.8 L11.7105263,7.8 L6.679,7.8 L8.68198052,9.80330086 Z" id="重做" transform="translate(10.500000, 9.900000) scale(-1, 1) translate(-10.500000, -9.900000) "></path>
            </g>
        </g>
    </g>
</svg>
