<?xml version="1.0" encoding="UTF-8"?>
<svg viewBox="0 0 20 20" version="1.1" xmlns="http://www.w3.org/2000/svg" xmlns:xlink="http://www.w3.org/1999/xlink">
    <!-- Generator: Sketch 57.1 (83088) - https://sketch.com -->
    <title>刷新</title>
    <desc>Created with Sketch.</desc>
    <g id="组件库" stroke="none" stroke-width="1" fill="none" fill-rule="evenodd">
        <g id="图标Iconography" transform="translate(-389.000000, -698.000000)" fill="#7F8FA4" fill-rule="nonzero">
            <g id="编组-25" transform="translate(389.000000, 698.000000)">
                <path d="M4.86000333,7.33465986 L6.97200579,9.53466242 C7.14800599,9.71066262 7.14800599,9.97466293 6.97200579,10.1506631 C6.97200579,10.2386632 6.88400568,10.2386632 6.70800548,10.2386632 C6.62000538,10.2386632 6.44400517,10.1506631 6.35600507,10.1506631 L4.84133752,8.56050209 C4.3928394,10.234485 4.85769529,12.0843574 6.09200476,13.3186668 C7.5880065,14.9026687 9.96400927,15.2546691 11.9000115,14.1986678 C12.0760117,14.1106677 12.340012,14.1986678 12.5160122,14.3746681 C12.6040123,14.5506683 12.5160122,14.8146686 12.340012,14.9906688 C11.3720109,15.4306693 10.4920099,15.6066695 9.52400876,15.6066695 C8.02800701,15.6066695 6.53200527,14.9906688 5.47600404,13.9346675 C4.18290157,12.6415651 3.59354997,10.8206494 3.85157627,9.04642883 L2.74800087,10.1506631 C2.57200067,10.3266633 2.30800036,10.3266633 2.13200015,10.1506631 C1.95599995,9.97466293 1.95599995,9.71066262 2.13200015,9.53466242 L4.24400261,7.33465986 C4.42000282,7.15865965 4.68400312,7.15865965 4.86000333,7.33465986 Z M14.5400146,5.75065802 C15.8425515,7.05319492 16.3715262,8.89127487 16.1269387,10.677723 L17.1800177,9.62266252 C17.3560179,9.44666232 17.6200182,9.44666232 17.7960184,9.62266252 C17.9720186,9.79866273 17.9720186,10.062663 17.7960184,10.2386632 L15.6840159,12.3506657 C15.5080157,12.3506657 15.4200156,12.4386658 15.3320155,12.4386658 C15.2440154,12.4386658 15.0680152,12.3506657 14.9800151,12.3506657 L12.8680126,10.2386632 C12.6920124,10.062663 12.6920124,9.79866273 12.8680126,9.62266252 C13.0440129,9.44666232 13.3080132,9.44666232 13.4840134,9.62266252 L15.0842634,11.2218128 C15.5368412,9.54546639 15.0725331,7.69117813 13.8360138,6.45465884 C12.340012,4.95865709 9.96400927,4.51865658 8.02800701,5.57465781 C7.85200681,5.66265791 7.5880065,5.57465781 7.4120063,5.39865761 C7.4120063,5.0466572 7.5000064,4.78265689 7.6760066,4.69465679 C9.87600916,3.46265535 12.6920124,3.90265587 14.5400146,5.75065802 Z" id="刷新"></path>
            </g>
        </g>
    </g>
</svg>
