<?xml version="1.0" encoding="UTF-8"?>
<svg  viewBox="0 0 20 20" version="1.1" xmlns="http://www.w3.org/2000/svg" xmlns:xlink="http://www.w3.org/1999/xlink">
    <!-- Generator: Sketch 57.1 (83088) - https://sketch.com -->
    <title>del</title>
    <desc>Created with Sketch.</desc>
    <g id="组件库" stroke="none" stroke-width="1"  fill-rule="evenodd">
        <g id="图标Iconography" transform="translate(-487.000000, -578.000000)" >
            <g id="编组-23" transform="translate(487.000000, 578.000000)">
                <path d="M12.009222,3 C12.5104675,3 12.9351218,3.38965696 12.9932293,3.89165516 L13,4.0093689 L13,5.9906311 C13,5.99402856 12.999984,5.99742159 12.9999521,6.00081014 L16.5017326,6 C16.7491644,6 16.9504102,6.17687516 16.9920768,6.41012437 L17,6.5 L16.9919722,6.58774863 C16.9550566,6.78811943 16.7946826,6.95347128 16.5912968,6.99167846 L16.5017326,7 L15,7 L15,15.007983 C15,16.0501947 14.1842793,16.9177698 13.1496186,16.9944869 L13.000385,17 L6.99961498,17 C5.937987,17 5.08114011,16.1873788 5.00543838,15.1566495 L5,15.007983 L5,7 L3.49826741,7 C3.25083555,7 3.04958978,6.82312484 3.00792322,6.58987563 L3,6.5 L3.00802776,6.41225137 C3.04494336,6.21188057 3.20531738,6.04652872 3.40870321,6.00832154 L3.49826741,6 L7,6 L7,5.9906311 L7,4.0093689 C7,3.48378287 7.38248012,3.063962 7.87523233,3.00666915 L7.99077797,3 L12.009222,3 Z M14,7 L6,7 L6,15.0024554 C6,15.553384 6.45303631,16 6.99703014,16 L13.0029699,16 C13.5536144,16 14,15.5536886 14,15.0024554 L14,7 Z M11.5,9 C11.7382812,9 11.9480131,9.1760611 11.9916785,9.4082368 L12,9.49769878 L12,13.5023012 C12,13.7537279 11.8231248,13.9514173 11.5898756,13.9922442 L11.5,14 L11.4122514,13.9919814 C11.2118806,13.9551079 11.0465287,13.7949169 11.0083215,13.5917632 L11,13.5023012 L11,9.49769878 C11,9.21484375 11.2238576,9 11.5,9 Z M8.5,9 C8.76806641,9 9,9.22282734 9,9.49769878 L9,9.49769878 L9,13.5023012 C9,13.7851562 8.77614237,14 8.5,14 L8.5,14 L8.41225137,13.9919814 C8.18325617,13.9498403 8,13.7466314 8,13.5023012 L8,13.5023012 L8,9.49769878 C8,9.21484375 8.22385763,9 8.5,9 Z M12,4 L8,4 L8,6 L12,6 L12,4 Z" id="del"></path>
            </g>
        </g>
    </g>
</svg>
