<?xml version="1.0" encoding="UTF-8"?>
<svg  viewBox="0 0 20 20" version="1.1" xmlns="http://www.w3.org/2000/svg" xmlns:xlink="http://www.w3.org/1999/xlink">
    <!-- Generator: Sketch 57.1 (83088) - https://sketch.com -->
    <title>save</title>
    <desc>Created with Sketch.</desc>
    <g id="组件库" stroke="none" stroke-width="1"  fill-rule="evenodd">
        <g id="图标Iconography" transform="translate(-966.000000, -578.000000)" >
            <g id="save-2" transform="translate(966.000000, 578.000000)">
                <path d="M14,4 C15.0543649,4 15.9181654,4.81587864 15.9945143,5.85073777 L16,6 L16,14 C16,15.0543648 15.1841214,15.9181654 14.1492622,15.9945143 L14,16 L6,16 C4.94563507,16 4.08183459,15.1841213 4.00548572,14.1492622 L4,14 L4,6 C4,4.89542752 4.89543003,4 6,4 L14,4 Z M14.0012133,5.01032926 L14,8 C14,8.55228475 13.5522847,9 13,9 L7,9 C6.44771525,9 6,8.55228475 6,8 L5.99979442,5.01019436 C5.47636471,5.08002973 5.06391386,5.50078178 5.00677061,6.02812157 L5,6.15384584 L5,13.8461544 C5,14.4409226 5.45001079,14.9305845 6.02812139,14.9932294 L6.15384566,15 L13.8461544,15 C14.4409225,15 14.9305845,14.5499893 14.9932294,13.9718787 L15,13.8461544 L15,6.15384563 C15,5.56917598 14.5651409,5.08607363 14.0012133,5.01032926 Z M13,5 L10.5,5 L7,5 L7,8 L13,8 L13,5 Z M10.5,5 C10.8333345,5 11,5.13333343 11,5.39999972 L11,6.60000028 C11,6.83703798 10.8683126,6.96872449 10.6049382,6.99506176 L10.5,7 C10.1666655,7 10,6.86666657 10,6.60000028 L10,5.39999972 C10,5.16296202 10.1316874,5.03127551 10.3950618,5.00493824 L10.5,5 Z" id="save"></path>
            </g>
        </g>
    </g>
</svg>
