<?xml version="1.0" encoding="UTF-8"?>
<svg viewBox="0 0 20 20" version="1.1" xmlns="http://www.w3.org/2000/svg" xmlns:xlink="http://www.w3.org/1999/xlink">
    <!-- Generator: Sketch 57.1 (83088) - https://sketch.com -->
    <title>search1px</title>
    <desc>Created with Sketch.</desc>
    <g id="组件库" stroke="none" stroke-width="1"  fill-rule="evenodd">
        <g id="图标Iconography" transform="translate(-583.000000, -578.000000)" >
            <g id="Icon" transform="translate(583.000000, 578.000000)">
                <path d="M8.5,3 C11.5375661,3 14,5.46243388 14,8.5 C14,9.85161244 13.5124519,11.0893519 12.7036283,12.0469459 C12.7596101,12.0699223 12.8120876,12.1049808 12.8578898,12.150783 L12.8578898,12.150783 L15.9247302,15.2176234 C16.1199924,15.4128856 16.1199924,15.7294681 15.9247302,15.9247302 C15.7294681,16.1199924 15.4128856,16.1199924 15.2176234,15.9247302 L15.2176234,15.9247302 L12.150783,12.8578898 C12.1049808,12.8120876 12.0699223,12.7596101 12.0456075,12.7035888 C11.0893519,13.5124519 9.85161244,14 8.5,14 C5.46243388,14 3,11.5375661 3,8.5 C3,5.46243388 5.46243388,3 8.5,3 Z M8.5,4 C6.01471863,4 4,6.01471863 4,8.5 C4,10.9852814 6.01471863,13 8.5,13 C10.9852814,13 13,10.9852814 13,8.5 C13,6.01471863 10.9852814,4 8.5,4 Z" id="search1px"></path>
            </g>
        </g>
    </g>
</svg>
