<?xml version="1.0" encoding="UTF-8"?>
<svg  viewBox="0 0 20 20" version="1.1" xmlns="http://www.w3.org/2000/svg" xmlns:xlink="http://www.w3.org/1999/xlink">
    <!-- Generator: Sketch 57.1 (83088) - https://sketch.com -->
    <title>设置</title>
    <desc>Created with Sketch.</desc>
    <g id="组件库" stroke="none" stroke-width="1"  fill-rule="evenodd">
        <g id="图标Iconography" transform="translate(-678.000000, -578.000000)"  fill-rule="nonzero">
            <g id="Icon" transform="translate(678.000000, 578.000000)">
                <path d="M11.2350263,3.5 C11.6352509,3.5 11.9818882,3.78901007 12.0319278,4.17907864 L12.2258059,5.49422897 C12.4528887,5.60092386 12.6717155,5.72500922 12.8830101,5.86633505 L14.1832938,5.35861921 C14.5461576,5.23026937 14.9675836,5.37001699 15.156128,5.70657161 L16.3960712,7.79344727 C16.5904156,8.14002265 16.5067451,8.57568399 16.1886451,8.81995611 L15.1118807,9.6389989 C15.1223579,9.76354938 15.1276019,9.88046704 15.1276019,10 C15.1276019,10.1195333 15.1223579,10.2364513 15.1118806,10.3610022 L16.1904705,11.181439 C16.5067451,11.424316 16.5904156,11.8599774 16.3897918,12.2174284 L15.1624074,14.2825527 C14.9662236,14.6324084 14.5438968,14.7787863 14.1680932,14.6357251 L12.8807296,14.1328198 C12.6657387,14.2754957 12.4482252,14.3996982 12.2258899,14.5050987 L12.0331959,15.8117293 C11.9818882,16.2109899 11.6352509,16.5 11.2350263,16.5 L8.76769856,16.5 C8.36747397,16.5 8.02083661,16.2109899 7.97079702,15.8209214 L7.77691893,14.505771 C7.54983612,14.3990761 7.33100938,14.2749908 7.11971476,14.1336649 L5.81943107,14.6413808 C5.4565673,14.7697306 5.03514121,14.629983 4.8465969,14.2934284 L3.60665362,12.2065527 C3.41230929,11.8599774 3.49597975,11.424316 3.81407976,11.1800439 L4.89101239,10.3608732 C4.88051922,10.2354493 4.87512292,10.1170408 4.87512292,10 C4.87512292,9.88295885 4.88051925,9.76455 4.89101248,9.63912576 L3.81225439,8.81856101 C3.4929408,8.57335028 3.40254987,8.12884378 3.61293303,7.78257161 L4.84031749,5.71744727 C5.03650125,5.36759162 5.4588281,5.22121371 5.83463165,5.36427488 L7.1219952,5.86718024 C7.33698613,5.72450427 7.55449966,5.6003018 7.77683492,5.49490126 L7.96952896,4.18827073 C8.02083661,3.78901007 8.36747397,3.5 8.76769856,3.5 L11.2350263,3.5 Z M11.068507,4.5 L8.93429489,4.5 L8.68371003,6.19981445 L8.41621049,6.30645383 C8.10119953,6.43203376 7.79350418,6.60762254 7.48329181,6.83393308 L7.26191574,6.99543449 L7.00667445,6.89572512 L5.62413892,6.35562263 L4.56629687,8.13571143 L5.95106488,9.18903769 L5.91422311,9.47572927 C5.88823828,9.67793537 5.87512292,9.8450582 5.87512292,10 C5.87512292,10.1549418 5.88823828,10.3220646 5.91422311,10.5242707 L5.95106488,10.8109623 L5.72100718,10.9859561 L4.56629687,11.8642785 L5.62399325,13.6444158 L7.26559193,13.0031294 L7.48815773,13.1696621 C7.78085966,13.3886734 8.08851604,13.5629099 8.41621049,13.6935462 L8.68371003,13.8001855 L8.72570867,14.0850786 L8.93421789,15.5 L11.06843,15.5 L11.3190148,13.8001855 L11.5865144,13.6935462 C11.9015253,13.5679662 12.2092207,13.3923775 12.519433,13.1660669 L12.7408091,13.0045655 L12.9960504,13.1042749 L14.3785944,13.6443807 L15.4365279,11.8643646 L14.05166,10.8109623 L14.0885017,10.5242707 C14.1149986,10.3180805 14.1276019,10.1587076 14.1276019,10 C14.1276019,9.84129238 14.1149986,9.68191949 14.0885017,9.47572927 L14.05166,9.18903769 L14.2817177,9.01404389 L15.4365279,8.13572151 L14.3787316,6.35558416 L12.7371329,6.99687059 L12.5145671,6.83033791 C12.2218652,6.61132656 11.9142088,6.43709007 11.5865144,6.30645383 L11.3190148,6.19981445 L11.2770162,5.91492136 L11.068507,4.5 Z M10.0013624,7.4 C11.4649419,7.4 12.6602742,8.56271438 12.6602742,10 C12.6602742,11.4372856 11.4649419,12.6 10.0013624,12.6 C8.53778292,12.6 7.34245066,11.4372856 7.34245066,10 C7.34245066,8.56271438 8.53778292,7.4 10.0013624,7.4 Z M10.0013624,8.4 C9.08397066,8.4 8.34245066,9.12128562 8.34245066,10 C8.34245066,10.8787144 9.08397066,11.6 10.0013624,11.6 C10.9187542,11.6 11.6602742,10.8787144 11.6602742,10 C11.6602742,9.12128562 10.9187542,8.4 10.0013624,8.4 Z" id="设置"></path>
            </g>
        </g>
    </g>
</svg>
