<?xml version="1.0" encoding="UTF-8"?>
<svg  viewBox="0 0 20 20" version="1.1" xmlns="http://www.w3.org/2000/svg" xmlns:xlink="http://www.w3.org/1999/xlink">
    <!-- Generator: Sketch 57.1 (83088) - https://sketch.com -->
    <title>时间</title>
    <desc>Created with Sketch.</desc>
    <g id="组件库" stroke="none" stroke-width="1"  fill-rule="evenodd">
        <g id="图标Iconography" transform="translate(-487.000000, -291.000000)" fill="#CED0DA" fill-rule="nonzero">
            <g id="时间-3" transform="translate(487.000000, 291.000000)">
                <g id="时间-2">
                    <path d="M9.992,2 C5.576,2 2,5.584 2,10 C2,14.416 5.576,18 9.992,18 C14.416,18 18,14.416 18,10 C18,5.584 14.416,2 9.992,2 Z M10,16.4 C6.464,16.4 3.6,13.536 3.6,10 C3.6,6.464 6.464,3.6 10,3.6 C13.536,3.6 16.4,6.464 16.4,10 C16.4,13.536 13.536,16.4 10,16.4 Z M9.824,6 L9.776,6 C9.456,6 9.2,6.256 9.2,6.576 L9.2,10.352 C9.2,10.632 9.344,10.896 9.592,11.04 L12.912,13.032 C13.184,13.192 13.536,13.112 13.696,12.84 C13.864,12.568 13.776,12.208 13.496,12.048 L10.4,10.208 L10.4,6.576 C10.4,6.256 10.144,6 9.824,6 L9.824,6 Z" id="时间"></path>
                </g>
            </g>
        </g>
    </g>
</svg>
