<?xml version="1.0" encoding="UTF-8"?>
<svg viewBox="0 0 20 20" version="1.1" xmlns="http://www.w3.org/2000/svg" xmlns:xlink="http://www.w3.org/1999/xlink">
    <!-- Generator: Sketch 57.1 (83088) - https://sketch.com -->
    <title>撤销</title>
    <desc>Created with Sketch.</desc>
    <g id="组件库" stroke="none" stroke-width="1"  fill-rule="evenodd">
        <g id="图标Iconography" transform="translate(-294.000000, -655.000000)" >
            <g id="撤销-2" transform="translate(294.000000, 655.000000)">
                <path d="M7.68198052,9.80330086 C7.87724266,9.998563 7.87724266,10.3151455 7.68198052,10.5104076 C7.48671837,10.7056698 7.17013588,10.7056698 6.97487373,10.5104076 L4.14644661,7.68198052 C3.95118446,7.48671837 3.95118446,7.17013588 4.14644661,6.97487373 L6.97487373,4.14644661 C7.17013588,3.95118446 7.48671837,3.95118446 7.68198052,4.14644661 C7.87724266,4.34170876 7.87724266,4.65829124 7.68198052,4.85355339 L5.735,6.8 L10.7105263,6.8 C13.0159035,6.8 14.8869991,8.70347313 14.9950692,11.0824584 L15,11.3 C15,13.7794169 13.0857634,15.8 10.7105263,15.8 L10.7105263,15.8 L5.5,15.8 C5.22385763,15.8 5,15.5761424 5,15.3 C5,15.0238576 5.22385763,14.8 5.5,14.8 L5.5,14.8 L10.7105263,14.8 C12.5210263,14.8 14,13.238861 14,11.3 C14,9.36113895 12.5210263,7.8 10.7105263,7.8 L10.7105263,7.8 L5.679,7.8 L7.68198052,9.80330086 Z" id="撤销"></path>
            </g>
        </g>
    </g>
</svg>
