<?xml version="1.0" encoding="UTF-8"?>
<svg width="20px" height="20px" viewBox="0 0 20 20" version="1.1" xmlns="http://www.w3.org/2000/svg" xmlns:xlink="http://www.w3.org/1999/xlink">
    <!-- Generator: Sketch 57.1 (83088) - https://sketch.com -->
    <title>icon_show</title>
    <desc>Created with Sketch.</desc>
    <g id="组件库" stroke="none" stroke-width="1"  fill-rule="evenodd">
        <g id="图标Iconography" transform="translate(-487.000000, -861.000000)" fill-rule="nonzero" >
            <g id="编组-24" transform="translate(487.000000, 861.000000)">
                <path d="M10,4 C6.36363636,4 3.25818182,6.488 2,10 C3.25818182,13.512 6.36363636,16 10,16 C13.6363636,16 16.7418182,13.512 18,10 C16.7418182,6.488 13.6363636,4 10,4 Z M10,14 C7.99272727,14 6.36363636,12.208 6.36363636,10 C6.36363636,7.792 7.99272727,6 10,6 C12.0072727,6 13.6363636,7.792 13.6363636,10 C13.6363636,12.208 12.0072727,14 10,14 Z M10,7.6 C8.79272727,7.6 7.81818182,8.672 7.81818182,10 C7.81818182,11.328 8.79272727,12.4 10,12.4 C11.2072727,12.4 12.1818182,11.328 12.1818182,10 C12.1818182,8.672 11.2072727,7.6 10,7.6 Z" id="icon_show"></path>
            </g>
        </g>
    </g>
</svg>
