<?xml version="1.0" encoding="UTF-8"?>
<svg viewBox="0 0 20 20" version="1.1" xmlns="http://www.w3.org/2000/svg" xmlns:xlink="http://www.w3.org/1999/xlink">
    <!-- Generator: Sketch 57.1 (83088) - https://sketch.com -->
    <title>Search icon</title>
    <desc>Created with Sketch.</desc>
    <g id="组件库" stroke="none" stroke-width="1"  fill-rule="evenodd">
        <g id="图标Iconography" transform="translate(-197.000000, -291.000000)" fill="#354052" fill-rule="nonzero">
            <g id="编组-17" transform="translate(197.000000, 291.000000)">
                <path d="M8.08695664,6.59230228 C8.36250855,6.59230228 8.58588751,6.81568124 8.58588751,7.09123315 L8.585,8.588 L10.0826801,8.58802577 C10.358232,8.58802577 10.581611,8.81140473 10.581611,9.08695664 C10.581611,9.36250855 10.358232,9.58588751 10.0826801,9.58588751 L8.585,9.585 L8.58588751,11.0826801 C8.58588751,11.358232 8.36250855,11.581611 8.08695664,11.581611 C7.81140473,11.581611 7.58802577,11.358232 7.58802577,11.0826801 L7.588,9.585 L6.09123315,9.58588751 C5.81568124,9.58588751 5.59230228,9.36250855 5.59230228,9.08695664 C5.59230228,8.81140473 5.81568124,8.58802577 6.09123315,8.58802577 L7.588,8.588 L7.58802577,7.09123315 C7.58802577,6.81568124 7.81140473,6.59230228 8.08695664,6.59230228 Z M11.2024582,6.02614175 C9.49656851,4.32025206 6.73203144,4.32025206 5.02614175,6.02614175 C3.32025206,7.73203144 3.32025206,10.4965685 5.02614175,12.2024582 C6.73203144,13.9083479 9.49656851,13.9083479 11.2024582,12.2024582 C12.9083479,10.4965685 12.9083479,7.73203144 11.2024582,6.02614175 M15.7445096,16.7445096 C15.4029823,17.0851635 14.8500749,17.0851635 14.5085475,16.7445096 L11.757986,13.9930746 C9.36292738,15.783691 5.96687048,15.6142376 3.79105316,13.4375468 C1.40298228,11.0503494 1.40298228,7.17912403 3.79105316,4.79105316 C6.17825056,2.40298228 10.0503494,2.40298228 12.4375468,4.79105316 C14.6142376,6.96687048 14.783691,10.3629274 12.9930746,12.757986 L15.7445096,15.509421 C16.0851635,15.8500749 16.0851635,16.4029823 15.7445096,16.7445096" id="Search-icon"></path>
            </g>
        </g>
    </g>
</svg>
