<?xml version="1.0" encoding="UTF-8"?>
<svg  viewBox="0 0 20 20" version="1.1" xmlns="http://www.w3.org/2000/svg" xmlns:xlink="http://www.w3.org/1999/xlink">
    <!-- Generator: Sketch 57.1 (83088) - https://sketch.com -->
    <title>Search icon</title>
    <desc>Created with Sketch.</desc>
    <g id="组件库" stroke="none" stroke-width="1"  fill-rule="evenodd">
        <g id="图标Iconography" transform="translate(-102.000000, -291.000000)"  fill-rule="nonzero">
            <g id="编组-18" transform="translate(102.000000, 291.000000)">
                <path d="M7.09123315,8.58802577 L11.0826801,8.58802577 C11.358232,8.58802577 11.581611,8.81140473 11.581611,9.08695664 C11.581611,9.36250855 11.358232,9.58588751 11.0826801,9.58588751 L7.09123315,9.58588751 C6.81568124,9.58588751 6.59230228,9.36250855 6.59230228,9.08695664 C6.59230228,8.81140473 6.81568124,8.58802577 7.09123315,8.58802577 Z M12.2024582,6.02614175 C10.4965685,4.32025206 7.73203144,4.32025206 6.02614175,6.02614175 C4.32025206,7.73203144 4.32025206,10.4965685 6.02614175,12.2024582 C7.73203144,13.9083479 10.4965685,13.9083479 12.2024582,12.2024582 C13.9083479,10.4965685 13.9083479,7.73203144 12.2024582,6.02614175 M16.7445096,16.7445096 C16.4029823,17.0851635 15.8500749,17.0851635 15.5085475,16.7445096 L12.757986,13.9930746 C10.3629274,15.783691 6.96687048,15.6142376 4.79105316,13.4375468 C2.40298228,11.0503494 2.40298228,7.17912403 4.79105316,4.79105316 C7.17825056,2.40298228 11.0503494,2.40298228 13.4375468,4.79105316 C15.6142376,6.96687048 15.783691,10.3629274 13.9930746,12.757986 L16.7445096,15.509421 C17.0851635,15.8500749 17.0851635,16.4029823 16.7445096,16.7445096" id="Search-icon"></path>
            </g>
        </g>
    </g>
</svg>
