<?xml version="1.0" encoding="UTF-8"?>
<svg width="100px" height="94px" viewBox="0 0 100 94" version="1.1" xmlns="http://www.w3.org/2000/svg" xmlns:xlink="http://www.w3.org/1999/xlink">
    <!-- Generator: Sketch 57.1 (83088) - https://sketch.com -->
    <title>形状</title>
    <desc>Created with Sketch.</desc>
    <g id="缺省状态" stroke="none" stroke-width="1" fill="none" fill-rule="evenodd">
        <g id="欢迎页" transform="translate(-862.000000, -358.000000)" fill="#7F8FA4" fill-rule="nonzero">
            <path d="M918.074766,402.981132 L863.869159,402.981132 L863.869159,358 L862,358 L862,451.710692 L863.869159,451.710692 L863.869159,404.855346 L918.074766,404.855346 L918.074766,451.710692 L919.943925,451.710692 L919.943925,358 L918.074766,358 L918.074766,402.981132 Z M954.523364,451.710692 L956.392523,451.710692 L956.392523,386.113208 L954.523364,386.113208 L954.523364,451.710692 Z M955.457944,358.937107 C951.813084,358.937107 948.915888,361.842138 948.915888,365.496855 C948.915888,369.151572 951.813084,372.056604 955.457944,372.056604 C959.102804,372.056604 962,369.151572 962,365.496855 C962,361.842138 959.102804,358.937107 955.457944,358.937107 Z" id="形状"></path>
        </g>
    </g>
</svg>