<?xml version="1.0" encoding="UTF-8"?>
<svg width="18px" height="18px" viewBox="0 0 18 18" version="1.1" xmlns="http://www.w3.org/2000/svg" xmlns:xlink="http://www.w3.org/1999/xlink">
    <!-- Generator: Sketch 57.1 (83088) - https://sketch.com -->
    <title>图片显示失败</title>
    <desc>Created with Sketch.</desc>
    <g id="组件库" stroke="none" stroke-width="1" fill="none" fill-rule="evenodd">
        <g id="图标Iconography" transform="translate(-679.000000, -365.000000)" fill="#D8D8D8">
            <g id="图片显示失败-2" transform="translate(679.000000, 365.000000)">
                <path d="M8.22540629,2 L7.8373921,3.18939526 L8.77726517,5.2433153 L7.7538266,7.80918832 L8.33127188,9.29575567 L6.99352572,7.90120182 C6.92768771,7.83361492 6.84321299,7.78850972 6.75202044,7.77082953 L6.65903003,7.7624741 L6.58313958,7.76990485 C6.50850544,7.78366216 6.43838389,7.81604419 6.37946763,7.86385661 L6.32453434,7.91669417 L2.31106503,12.503405 C2.20910655,12.6178965 2.17390013,12.7745461 2.21267192,12.9187761 L2.24487019,13.003387 L2.28568947,13.0697932 C2.35920763,13.1690907 2.47028169,13.233981 2.59242744,13.2495445 L2.68569888,13.2517352 L8.09724494,12.8808565 L7.86647916,13.8801168 L8.30566614,14.6772739 L1.71575514,15.1291358 C1.51579289,15.1420155 1.31830895,15.0888187 1.15293273,14.979534 L1.05779696,14.9073126 L0.973014693,14.8240433 C0.868136515,14.7062248 0.796539242,14.5624833 0.765682653,14.4077956 L0.750295648,14.2899614 L0.0021994012,3.47131304 C-0.0117505421,3.27200718 0.0410157113,3.07492357 0.150324984,2.91032176 L0.222614324,2.81570057 L0.306904562,2.73118868 C0.425941396,2.6265946 0.57036796,2.55495434 0.725668411,2.52346834 L0.843955793,2.50749528 L8.22540629,2 Z M10.2267747,2.11104465 L17.0986035,2.37746749 C17.2991596,2.38438535 17.4905194,2.45769984 17.6435338,2.5840912 L17.7305079,2.66618868 L17.8059355,2.75830753 C17.8976073,2.88703829 17.9532062,3.03803589 17.9669057,3.19547642 L17.9692332,3.31451762 L17.5422537,14.1486601 C17.5233682,14.610182 17.1627549,14.9770979 16.7141155,15.0153097 L16.6002686,15.0178791 L8.93903546,14.7225853 L8.57777908,13.8643995 L8.91227477,12.9130229 L15.5768272,13.1735774 C15.7340079,13.1799152 15.8812077,13.1045987 15.9686072,12.978068 L16.007093,12.9106757 L16.0364053,12.8254225 C16.0636475,12.7095984 16.0438908,12.5874279 15.9815168,12.4861054 L15.9268141,12.4144474 L13.4952061,9.79411528 C13.3468661,9.63345326 13.1092895,9.60421037 12.9287679,9.71250505 L12.8553212,9.76735557 L10.9600812,11.5086097 L9.65472774,9.8185255 L9.12845525,7.84770067 L10.4218378,5.40506245 L9.70590053,3.25443172 L10.2267747,2.11104465 Z M12.9125875,4.92316103 C12.1614387,4.89405463 11.528832,5.47689821 11.4994902,6.22476078 C11.4701472,6.97262046 12.0551028,7.6028814 12.8062517,7.63222324 C13.1669224,7.64648671 13.5185487,7.51726271 13.7841524,7.27284395 L13.7841524,7.27284395 L13.8909869,7.16272649 C14.091016,6.93166889 14.2079919,6.63830291 14.2200531,6.32991833 L14.2200531,6.32991833 L14.218865,6.1992681 C14.1795056,5.51004514 13.6195512,4.95055583 12.9125875,4.92316103 Z" id="图片显示失败"></path>
            </g>
        </g>
    </g>
</svg>