<?xml version="1.0" encoding="UTF-8"?>
<svg width="18px" height="18px" viewBox="0 0 18 18" version="1.1" xmlns="http://www.w3.org/2000/svg" xmlns:xlink="http://www.w3.org/1999/xlink">
    <!-- Generator: Sketch 57.1 (83088) - https://sketch.com -->
    <title>没上传图片</title>
    <desc>Created with Sketch.</desc>
    <g id="组件库" stroke="none" stroke-width="1" fill="none" fill-rule="evenodd">
        <g id="图标Iconography" transform="translate(-582.000000, -367.000000)" fill="#D8D8D8">
            <g id="没上传图片-2" transform="translate(582.000000, 367.000000)">
                <path d="M16,3 C16.5522847,3 17,3.44771525 17,4 L17,15 C17,15.5522847 16.5522847,16 16,16 L2,16 C1.44771525,16 1,15.5522847 1,15 L1,4 C1,3.44771525 1.44771525,3 2,3 L16,3 Z M7.46151412,8.97876121 L7.39195205,9.03623851 L3.06736216,13.3139592 C2.97241317,13.4078791 2.91898402,13.5358811 2.91898402,13.6694336 C2.91898402,13.9148935 3.09585918,14.119042 3.32910839,14.1613779 L3.41898402,14.1694336 L15.4338073,14.1694336 C15.5646941,14.1694336 15.6903624,14.1181103 15.7838287,14.026484 C15.9591118,13.8546515 15.9810742,13.5854321 15.8480219,13.3892317 L15.7908577,13.3194121 L13.3262429,10.8053043 C13.1552395,10.6308669 12.8875905,10.6081642 12.6914777,10.7394423 L12.6216171,10.7958938 L11.176045,12.1937807 C11.1611219,12.2082115 11.1453147,12.2216989 11.128715,12.2341646 C10.9324375,12.381561 10.662982,12.3627153 10.4890648,12.2016242 L10.4286537,12.1345942 L8.14338974,9.09146755 C8.1297899,9.07335759 8.11497531,9.05619257 8.09904833,9.04009109 C7.92643021,8.86558166 7.65711488,8.84482887 7.46151412,8.97876121 Z M12.9125875,5.92316103 C12.1614387,5.89405463 11.528832,6.47689821 11.4994902,7.22476078 C11.4701472,7.97262046 12.0551028,8.6028814 12.8062517,8.63222324 C13.1669224,8.64648671 13.5185487,8.51726271 13.7841524,8.27284395 L13.7841524,8.27284395 L13.8909869,8.16272649 C14.091016,7.93166889 14.2079919,7.63830291 14.2200531,7.32991833 L14.2200531,7.32991833 L14.218865,7.1992681 C14.1795056,6.51004514 13.6195512,5.95055583 12.9125875,5.92316103 Z" id="没上传图片"></path>
            </g>
        </g>
    </g>
</svg>