<?xml version="1.0" encoding="UTF-8"?>
<svg width="104px" height="83px" viewBox="0 0 104 83" version="1.1" xmlns="http://www.w3.org/2000/svg" xmlns:xlink="http://www.w3.org/1999/xlink">
    <!-- Generator: Sketch 57.1 (83088) - https://sketch.com -->
    <title>暂无洞察</title>
    <desc>Created with Sketch.</desc>
    <g id="缺省状态" stroke="none" stroke-width="1" fill="none" fill-rule="evenodd">
        <g id="暂无洞察" transform="translate(-861.000000, -417.000000)" fill-rule="nonzero">
            <g transform="translate(861.000000, 417.000000)">
                <polygon id="路径" fill="#D1DBE5" points="17 28 81 28 81 83 17 83"></polygon>
                <polygon id="路径" fill="#9BA8B8" points="92 66.2268041 81 82 81 27 92 27"></polygon>
                <path d="M72.8478513,45 L10,45 L17.029036,27.4655172 L79.8768873,27.4655172 L72.8478513,45 Z M91.5574913,11.5344828 L28.4512195,11.5344828 L37.1341463,0 L99,0 L91.5574913,11.5344828 Z" id="形状" fill="#E1EBF5"></path>
                <polygon id="路径" fill="#D1DBE5" points="96.4511931 39 80 27.1498127 91.7657267 11 104 16.2434457"></polygon>
                <polygon id="路径" fill="#D1DBE6" points="16.5033113 27.2884615 4 33 15.9735099 16.7644231 28 11 16.5033113 27.2884615"></polygon>
                <polygon id="路径" fill="#AFC0D2" points="80.1539722 28 28 28 28 12 92 12 80.1539722 28"></polygon>
                <polygon id="路径" fill="#98A5B5" points="28 12 17 28 28 28"></polygon>
                <path d="M99.8737698,74 L98.9522648,73.5198652 L98.9522651,73.5198641 C100.45642,67.7179076 100.224214,61.5755851 98.2867328,55.9149389 C96.0853598,51.7537748 86.1023894,52.0738644 86,52.0738644 L86,51.0068992 C86.4607525,51.0068992 96.6996964,50.6334614 99.2082377,55.3814564 L99.2082383,55.381458 C101.343348,61.3520658 101.576704,67.8803713 99.8737686,74 L99.8737698,74 Z" id="路径" fill="#D1D9E0"></path>
                <path d="M96.4186046,75 L96,74.0857143 L96,74.0857143 C97.2558774,73.3805089 98.6191858,73.0104665 100,73 L100,74.0857143 L100,74.0857143 C98.7675055,74.0819553 97.5478563,74.3933159 96.4186049,75 L96.4186046,75 Z" id="路径" fill="#D1D9E0"></path>
                <path d="M99.4909123,77.9999565 L99.4909123,77.5813519 L99,77.5813519 L99,77.5813493 C99.7073276,76.4160062 100.344513,75.2206666 100.909084,74 L102,74 L102,74 C101.336439,75.407068 100.495111,76.7483105 99.4908923,78 L99.4909123,77.9999565 Z" id="路径" fill="#D1D9E0"></path>
                <path d="M103.064855,77 L103.064855,77 C102.215351,75.8971375 101.295659,74.8490509 100.311372,73.8621402 L101.09066,73.1419753 L101.09066,73.1419753 C102.136356,74.2076742 103.108335,75.3419334 104,76.5370368 L103.064855,77 Z M3.4199449,74.1193414 C2.48479976,72.2160493 2.90041983,59.047326 6.84881042,55.6008242 L6.84881249,55.6008228 C9.98412604,53.3906972 13.7048693,52.1388386 17.5510298,52 L17.5510298,53.0288065 L17.5510298,53.0288065 C13.9381997,53.1691662 10.4411972,54.3292923 7.47224332,56.3724276 C3.9914253,59.3559665 3.41994771,71.8045252 4.25118783,73.6563769 L3.4199449,74.1193414 Z" id="形状" fill="#D1D9E0"></path>
                <path d="M7.58139588,75 L7.58139548,75 C6.44861932,74.4235068 5.23128647,74.1213703 4,74.111111 L4,73 L4,73 C5.38065044,73.0118507 6.74367733,73.3715375 8,74.0555554 L7.58139588,75 Z" id="路径" fill="#D1D9E0"></path>
                <path d="M5.29090959,78 L5.29091011,78 C4.34442673,76.7397389 3.57600878,75.3980559 3,74 L4.09090958,74 L4.09090824,74 C4.65642447,75.1532984 5.29359344,76.282936 6,77.3846203 L5.29090771,77.3846203 L5.29090959,78 Z" id="路径" fill="#D1D9E0"></path>
                <path d="M0.760563086,77 L0,76.6400001 L0,76.6399986 C0.726767221,75.7118585 1.51720733,74.8299605 2.36619743,74 L3,74.7599996 L3,74.7600012 C2.20635274,75.4631055 1.45849625,76.2111489 0.760562427,77 L0.760563086,77 Z" id="路径" fill="#D1D9E0"></path>
                <path d="M30,57 L30,57 C30,58.6568584 31.3431416,60 33,60 C34.6568584,60 36,58.6568584 36,57 L36,57 C36,55.3431416 34.6568584,54 33,54 C31.3431416,54 30,55.3431416 30,57 L30,57 Z" id="路径" fill="#9FADBA"></path>
                <path d="M53,57 L53,57 C53,58.6568584 54.3431416,60 56,60 C57.6568584,60 59,58.6568584 59,57 L59,57 C59,55.3431416 57.6568584,54 56,54 C54.3431416,54 53,55.3431416 53,57 L53,57 Z" id="路径" fill="#9FADBA"></path>
                <path d="M39.7999988,71 L39,70.4189458 L39,70.4189456 C41.3309048,66.9424463 46.1306241,65.9541056 49.7204917,68.2114124 C50.6317081,68.7843891 51.4083407,69.5365073 52,70.4189456 L51.2000012,71 L51.2000011,71 C49.1815667,67.9647479 45.0045222,67.0887973 41.8703082,69.0435001 C41.0604354,69.5485907 40.37158,70.2156994 39.8500183,71 L39.7999988,71 Z" id="路径" fill="#9FADBA"></path>
            </g>
        </g>
    </g>
</svg>